<svg width="45" height="45" viewBox="0 0 45 45" fill="none" xmlns="http://www.w3.org/2000/svg">
<path d="M44.1493 18.7344L39.7188 9.86985C39.5556 9.54358 39.3297 9.25265 39.054 9.01368C38.7784 8.77472 38.4583 8.59239 38.1122 8.47712C37.7661 8.36186 37.4006 8.3159 37.0367 8.34188C36.6728 8.36785 36.3176 8.46526 35.9914 8.62853L31.6736 10.7865L22.5782 8.38027C22.3448 8.31953 22.0997 8.31953 21.8664 8.38027L12.7709 10.7865L8.45316 8.62853C8.12691 8.46526 7.7717 8.36785 7.4078 8.34188C7.04391 8.3159 6.67846 8.36186 6.33233 8.47712C5.9862 8.59239 5.66616 8.77472 5.3905 9.01368C5.11483 9.25265 4.88894 9.54358 4.72573 9.86985L0.295171 18.7327C0.131901 19.0589 0.0344949 19.4142 0.00851653 19.7781C-0.0174618 20.1419 0.0284962 20.5074 0.143766 20.8535C0.259036 21.1997 0.44136 21.5197 0.680325 21.7954C0.919291 22.071 1.21022 22.2969 1.53649 22.4601L6.22399 24.8056L15.8577 31.6858C15.9996 31.7868 16.1592 31.8604 16.3282 31.9028L27.4393 34.6806C27.672 34.739 27.9158 34.7361 28.147 34.6722C28.3783 34.6083 28.589 34.4856 28.7587 34.316L38.3195 24.7535L42.9063 22.4601C43.5648 22.1305 44.0654 21.5529 44.2982 20.8542C44.531 20.1556 44.4768 19.3931 44.1476 18.7344H44.1493ZM34.6198 24.5278L28.6459 19.7431C28.3782 19.5288 28.0408 19.421 27.6985 19.4406C27.3562 19.4601 27.0332 19.6056 26.7917 19.849C23.6997 22.9636 20.2535 22.5695 18.0556 21.1806L25.5625 13.8889H31.0851L35.8091 23.3351L34.6198 24.5278ZM7.2101 11.1112L10.7639 12.8855L6.32469 21.7483L2.77781 19.9758L7.2101 11.1112ZM27.349 31.7935L17.2605 29.2726L8.71878 23.1719L13.5799 13.4497L22.2223 11.1598L23.9236 11.6094L16.1111 19.1928L16.0973 19.2084C15.8032 19.5025 15.5789 19.8588 15.4409 20.2512C15.303 20.6436 15.2549 21.0619 15.3002 21.4753C15.3455 21.8887 15.4831 22.2867 15.7028 22.6398C15.9225 22.993 16.2187 23.2923 16.5695 23.5157C20.1389 25.7952 24.4462 25.4254 27.8386 22.6476L32.6389 26.5035L27.349 31.7935ZM38.1129 21.7466L33.6823 12.8924L37.2344 11.1112L41.6667 19.9758L38.1129 21.7466ZM22.8785 37.8351C22.8035 38.1353 22.6303 38.4018 22.3866 38.5924C22.1429 38.783 21.8424 38.8868 21.533 38.8872C21.4189 38.8871 21.3052 38.8731 21.1945 38.8455L13.9601 37.0365C13.7909 36.9948 13.6312 36.9211 13.4896 36.8195L8.91496 33.5521C8.63368 33.3313 8.44843 33.0105 8.39778 32.6564C8.34714 32.3024 8.435 31.9425 8.64307 31.6516C8.85115 31.3608 9.1634 31.1614 9.51481 31.095C9.86621 31.0286 10.2297 31.1003 10.5295 31.2952L14.8889 34.4098L21.875 36.1528C22.2323 36.2422 22.5395 36.4698 22.7289 36.7856C22.9184 37.1014 22.9747 37.4796 22.8855 37.8369L22.8785 37.8351Z" fill="white"/>
</svg>
