<svg width="45" height="45" viewBox="0 0 45 45" fill="none" xmlns="http://www.w3.org/2000/svg">
<path d="M22.2221 13.8889C20.574 13.8889 18.9628 14.3776 17.5924 15.2933C16.222 16.209 15.1539 17.5105 14.5231 19.0332C13.8924 20.5559 13.7274 22.2315 14.0489 23.848C14.3705 25.4645 15.1642 26.9493 16.3296 28.1148C17.495 29.2802 18.9799 30.0739 20.5964 30.3954C22.2129 30.717 23.8885 30.552 25.4112 29.9212C26.9339 29.2905 28.2354 28.2224 29.1511 26.852C30.0667 25.4816 30.5555 23.8704 30.5555 22.2222C30.5532 20.0128 29.6745 17.8945 28.1122 16.3322C26.5499 14.7699 24.4316 13.8912 22.2221 13.8889ZM22.2221 27.7778C21.1234 27.7778 20.0492 27.452 19.1356 26.8415C18.222 26.231 17.51 25.3634 17.0895 24.3482C16.669 23.3331 16.559 22.2161 16.7733 21.1384C16.9877 20.0607 17.5168 19.0708 18.2938 18.2939C19.0707 17.5169 20.0606 16.9878 21.1383 16.7734C22.216 16.5591 23.333 16.6691 24.3482 17.0896C25.3633 17.51 26.231 18.2221 26.8414 19.1357C27.4519 20.0493 27.7777 21.1234 27.7777 22.2222C27.7777 23.6957 27.1924 25.1087 26.1505 26.1506C25.1086 27.1925 23.6956 27.7778 22.2221 27.7778ZM41.309 18.6129C41.2703 18.4173 41.1899 18.2323 41.0734 18.0705C40.9569 17.9088 40.8069 17.774 40.6336 17.6754L35.4548 14.724L35.434 8.88716C35.4333 8.68614 35.3891 8.48765 35.3042 8.30541C35.2194 8.12317 35.096 7.96151 34.9426 7.8316C33.064 6.24253 30.9007 5.02477 28.5676 4.24306C28.3839 4.18087 28.1892 4.15786 27.996 4.1755C27.8029 4.19314 27.6155 4.25105 27.4461 4.34549L22.2221 7.26563L16.993 4.34028C16.8235 4.24531 16.6359 4.18696 16.4424 4.16902C16.2489 4.15108 16.0538 4.17393 15.8697 4.23611C13.5384 5.02354 11.3775 6.24595 9.50166 7.83854C9.34848 7.96826 9.22523 8.12964 9.14042 8.31157C9.0556 8.49349 9.01122 8.69164 9.01034 8.89236L8.9843 14.7344L3.80548 17.6858C3.63222 17.7844 3.48222 17.9192 3.36569 18.081C3.24916 18.2427 3.16882 18.4277 3.13013 18.6233C2.65617 21.005 2.65617 23.4568 3.13013 25.8385C3.16882 26.0341 3.24916 26.2191 3.36569 26.3809C3.48222 26.5426 3.63222 26.6774 3.80548 26.776L8.9843 29.7274L9.00513 35.5642C9.00576 35.7653 9.05002 35.9637 9.13484 36.146C9.21967 36.3282 9.34305 36.4899 9.49645 36.6198C11.375 38.2089 13.5384 39.4266 15.8714 40.2083C16.0552 40.2705 16.2499 40.2935 16.4431 40.2759C16.6362 40.2583 16.8236 40.2003 16.993 40.1059L22.2221 37.1788L27.4513 40.1042C27.6583 40.2195 27.8915 40.2793 28.1284 40.2778C28.2801 40.2777 28.4308 40.2531 28.5746 40.2049C30.9057 39.4185 33.0665 38.1973 34.9426 36.6059C35.0958 36.4762 35.2191 36.3148 35.3039 36.1329C35.3887 35.951 35.4331 35.7528 35.434 35.5521L35.46 29.7101L40.6388 26.7587C40.8121 26.66 40.9621 26.5253 41.0786 26.3635C41.1951 26.2017 41.2755 26.0168 41.3142 25.8212C41.7855 23.4413 41.7837 20.992 41.309 18.6129ZM38.7048 24.6736L33.7447 27.4948C33.5274 27.6184 33.3475 27.7983 33.2239 28.0156C33.1232 28.1892 33.0173 28.3733 32.9096 28.5469C32.7719 28.7658 32.6985 29.0191 32.6978 29.2778L32.6718 34.8767C31.3386 35.9237 29.8533 36.7609 28.2673 37.3594L23.2638 34.5712C23.0561 34.4563 22.8224 34.3965 22.585 34.3976H22.552C22.3419 34.3976 22.1301 34.3976 21.9201 34.3976C21.6716 34.3914 21.426 34.4513 21.2083 34.5712L16.2013 37.3663C14.6119 36.7724 13.1225 35.9393 11.7846 34.8958L11.7655 29.3056C11.7647 29.0464 11.6913 28.7926 11.5537 28.5729C11.4461 28.3993 11.3402 28.2257 11.2412 28.0417C11.1185 27.821 10.9386 27.6375 10.7204 27.5104L5.75513 24.6823C5.49819 23.057 5.49819 21.4014 5.75513 19.776L10.7065 16.9497C10.9238 16.8261 11.1038 16.6461 11.2274 16.4288C11.328 16.2552 11.434 16.0712 11.5416 15.8976C11.6794 15.6786 11.7528 15.4254 11.7534 15.1667L11.7794 9.56771C13.1126 8.52074 14.5979 7.68354 16.184 7.08507L21.1805 9.87327C21.3979 9.9938 21.6438 10.0538 21.8923 10.0469C22.1024 10.0469 22.3142 10.0469 22.5242 10.0469C22.7727 10.0531 23.0183 9.99317 23.236 9.87327L28.243 7.07813C29.8324 7.67201 31.3218 8.5051 32.6596 9.54861L32.6787 15.1389C32.6796 15.3981 32.753 15.6519 32.8905 15.8715C32.9982 16.0451 33.1041 16.2188 33.203 16.4028C33.3258 16.6235 33.5057 16.807 33.7239 16.934L38.6892 19.7622C38.9495 21.3887 38.9525 23.0461 38.6978 24.6736H38.7048Z" fill="white"/>
</svg>
