<svg width="45" height="45" viewBox="0 0 45 45" fill="none" xmlns="http://www.w3.org/2000/svg">
<path d="M39.8714 37.9063L31.1787 29.2153C33.6982 26.1905 34.9545 22.3108 34.6864 18.3832C34.4183 14.4557 32.6463 10.7827 29.739 8.12843C26.8318 5.47411 23.0131 4.0428 19.0775 4.13225C15.1418 4.22169 11.3922 5.825 8.60853 8.60865C5.82488 11.3923 4.22157 15.142 4.13213 19.0776C4.04268 23.0133 5.47399 26.8319 8.1283 29.7391C10.7826 32.6464 14.4556 34.4184 18.3831 34.6865C22.3106 34.9547 26.1903 33.6983 29.2152 31.1788L37.9061 39.8715C38.0352 40.0006 38.1884 40.1029 38.357 40.1728C38.5256 40.2426 38.7063 40.2786 38.8888 40.2786C39.0713 40.2786 39.252 40.2426 39.4206 40.1728C39.5892 40.1029 39.7424 40.0006 39.8714 39.8715C40.0005 39.7425 40.1028 39.5893 40.1726 39.4207C40.2425 39.2521 40.2784 39.0714 40.2784 38.8889C40.2784 38.7064 40.2425 38.5257 40.1726 38.3571C40.1028 38.1885 40.0005 38.0353 39.8714 37.9063ZM6.94432 19.4444C6.94432 16.9722 7.67744 14.5554 9.05095 12.4998C10.4245 10.4442 12.3767 8.84205 14.6608 7.89595C16.9449 6.94986 19.4582 6.70232 21.883 7.18463C24.3077 7.66695 26.535 8.85746 28.2832 10.6056C30.0313 12.3538 31.2218 14.5811 31.7041 17.0058C32.1865 19.4306 31.9389 21.9439 30.9928 24.228C30.0467 26.5121 28.4446 28.4643 26.389 29.8378C24.3333 31.2113 21.9166 31.9444 19.4443 31.9444C16.1302 31.9408 12.953 30.6226 10.6095 28.2792C8.26614 25.9358 6.948 22.7585 6.94432 19.4444Z" fill="white"/>
</svg>
