<svg width="45" height="45" viewBox="0 0 45 45" fill="none" xmlns="http://www.w3.org/2000/svg">
<path d="M38.8629 8.18055C38.8218 7.50333 38.5342 6.8646 38.0545 6.38486C37.5747 5.90511 36.936 5.61753 36.2588 5.57638C34.0747 5.44617 28.4931 5.64582 23.8612 10.276L23.0365 11.1111H12.9098C12.5436 11.109 12.1807 11.1798 11.8421 11.3193C11.5035 11.4588 11.196 11.6642 10.9376 11.9236L4.98272 17.8819C4.61752 18.2469 4.36126 18.7064 4.2427 19.2089C4.12413 19.7114 4.14795 20.2369 4.31149 20.7267C4.47502 21.2164 4.7718 21.6508 5.16851 21.9812C5.56522 22.3116 6.04617 22.5249 6.55737 22.5972L13.2362 23.5295L20.9115 31.2049L21.8438 37.8871C21.9155 38.3984 22.1288 38.8794 22.4595 39.2757C22.7902 39.6721 23.2252 39.9681 23.7154 40.1302C24.0008 40.2256 24.2998 40.2742 24.6008 40.2743C24.9652 40.275 25.3262 40.2035 25.6629 40.0641C25.9996 39.9246 26.3053 39.7199 26.5626 39.4618L32.5209 33.5069C32.7803 33.2485 32.9857 32.941 33.1252 32.6024C33.2647 32.2638 33.3355 31.9009 33.3334 31.5347V21.408L34.1615 20.5799C38.7935 15.9479 38.9931 10.3663 38.8629 8.18055ZM12.9098 13.8889H20.2588L13.3959 20.75L6.94452 19.8507L12.9098 13.8889ZM25.8282 12.2483C27.1628 10.9054 28.7686 9.86285 30.5382 9.19013C32.3079 8.5174 34.2008 8.23004 36.0904 8.34721C36.2121 10.2378 35.9277 12.1325 35.2563 13.9041C34.5849 15.6756 33.5421 17.283 32.198 18.618L22.2223 28.5903L15.8542 22.2222L25.8282 12.2483ZM30.5556 31.5347L24.5956 37.5L23.6945 31.0469L30.5556 24.1858V31.5347ZM17.6806 33.184C16.8994 34.8958 14.2865 38.8889 6.94452 38.8889C6.57617 38.8889 6.2229 38.7425 5.96243 38.4821C5.70196 38.2216 5.55563 37.8683 5.55563 37.5C5.55563 30.158 9.54869 27.5451 11.2605 26.7621C11.4265 26.6864 11.6057 26.6442 11.788 26.6378C11.9703 26.6314 12.1521 26.6609 12.323 26.7248C12.4939 26.7886 12.6505 26.8855 12.784 27.0098C12.9174 27.1342 13.0251 27.2837 13.1008 27.4496C13.1765 27.6156 13.2187 27.7949 13.2251 27.9772C13.2316 28.1595 13.202 28.3413 13.1382 28.5122C13.0743 28.6831 12.9774 28.8397 12.8531 28.9731C12.7287 29.1066 12.5793 29.2142 12.4133 29.2899C11.297 29.7986 8.83341 31.4358 8.39938 36.0451C13.0088 35.6111 14.6494 33.1476 15.1546 32.0312C15.2303 31.8653 15.3379 31.7158 15.4714 31.5914C15.6048 31.4671 15.7615 31.3702 15.9323 31.3064C16.1032 31.2425 16.285 31.213 16.4673 31.2194C16.6496 31.2258 16.8289 31.268 16.9949 31.3437C17.1608 31.4194 17.3103 31.5271 17.4347 31.6605C17.559 31.794 17.6559 31.9506 17.7198 32.1215C17.7836 32.2924 17.8132 32.4742 17.8067 32.6565C17.8003 32.8388 17.7581 33.018 17.6824 33.184H17.6806Z" fill="white"/>
</svg>
