<svg width="45" height="45" viewBox="0 0 45 45" fill="none" xmlns="http://www.w3.org/2000/svg">
<path d="M22.2223 4.16663C18.6513 4.16663 15.1604 5.22557 12.1912 7.20954C9.22196 9.19351 6.90774 12.0134 5.54115 15.3126C4.17457 18.6118 3.81701 22.2422 4.51369 25.7446C5.21037 29.2471 6.92999 32.4643 9.45511 34.9894C11.9802 37.5145 15.1974 39.2341 18.6998 39.9308C22.2023 40.6275 25.8327 40.2699 29.1319 38.9033C32.4311 37.5368 35.251 35.2225 37.235 32.2533C39.2189 29.2841 40.2779 25.7932 40.2779 22.2222C40.2728 17.4351 38.3689 12.8455 34.9839 9.46056C31.599 6.07558 27.0094 4.17168 22.2223 4.16663ZM22.2223 37.5C19.2007 37.5 16.2469 36.6039 13.7344 34.9252C11.222 33.2464 9.26382 30.8604 8.10749 28.0687C6.95115 25.2771 6.6486 22.2052 7.23809 19.2416C7.82759 16.278 9.28266 13.5558 11.4193 11.4192C13.5559 9.28253 16.2782 7.82746 19.2418 7.23796C22.2054 6.64847 25.2772 6.95102 28.0689 8.10736C30.8605 9.26369 33.2466 11.2219 34.9253 13.7343C36.6041 16.2467 37.5001 19.2005 37.5001 22.2222C37.4955 26.2727 35.8844 30.156 33.0203 33.0201C30.1561 35.8843 26.2728 37.4954 22.2223 37.5ZM29.9341 12.6458L18.823 18.2013C18.5544 18.3363 18.3364 18.5542 18.2015 18.8229L12.6459 29.934C12.5399 30.1458 12.4899 30.3812 12.5005 30.6179C12.5111 30.8545 12.5821 31.0845 12.7067 31.2859C12.8312 31.4874 13.0053 31.6537 13.2122 31.7689C13.4191 31.8842 13.6521 31.9446 13.889 31.9444C14.1046 31.9441 14.3173 31.8942 14.5105 31.7986L25.6216 26.243C25.8902 26.1081 26.1082 25.8901 26.2431 25.6215L31.7987 14.5104C31.9298 14.2495 31.9753 13.9539 31.9288 13.6657C31.8823 13.3775 31.7462 13.1112 31.5397 12.9048C31.3333 12.6983 31.067 12.5622 30.7788 12.5157C30.4906 12.4692 30.195 12.5147 29.9341 12.6458ZM23.9584 23.9583L16.9949 27.4496L20.4862 20.4861L27.4567 17.0017L23.9584 23.9583Z" fill="white"/>
</svg>
