<svg width="45" height="45" viewBox="0 0 45 45" fill="none" xmlns="http://www.w3.org/2000/svg">
<path d="M36.1112 13.8889H30.5557V9.72225C30.5557 7.51211 29.6777 5.3925 28.1149 3.82969C26.5521 2.26689 24.4325 1.38892 22.2223 1.38892C20.0122 1.38892 17.8926 2.26689 16.3298 3.82969C14.767 5.3925 13.889 7.51211 13.889 9.72225V13.8889H8.33344C7.59673 13.8889 6.89019 14.1816 6.36926 14.7025C5.84832 15.2234 5.55566 15.93 5.55566 16.6667V36.1111C5.55566 36.8479 5.84832 37.5544 6.36926 38.0753C6.89019 38.5963 7.59673 38.8889 8.33344 38.8889H36.1112C36.8479 38.8889 37.5545 38.5963 38.0754 38.0753C38.5963 37.5544 38.889 36.8479 38.889 36.1111V16.6667C38.889 15.93 38.5963 15.2234 38.0754 14.7025C37.5545 14.1816 36.8479 13.8889 36.1112 13.8889ZM16.6668 9.72225C16.6668 8.24882 17.2521 6.83575 18.294 5.79388C19.3358 4.75201 20.7489 4.16669 22.2223 4.16669C23.6958 4.16669 25.1088 4.75201 26.1507 5.79388C27.1926 6.83575 27.7779 8.24882 27.7779 9.72225V13.8889H16.6668V9.72225ZM36.1112 36.1111H8.33344V16.6667H36.1112V36.1111ZM24.3057 26.3889C24.3057 26.801 24.1835 27.2038 23.9546 27.5464C23.7256 27.889 23.4003 28.156 23.0196 28.3137C22.6389 28.4713 22.22 28.5126 21.8159 28.4322C21.4118 28.3518 21.0406 28.1534 20.7492 27.8621C20.4578 27.5707 20.2594 27.1995 20.179 26.7954C20.0986 26.3912 20.1399 25.9723 20.2976 25.5917C20.4553 25.211 20.7223 24.8856 21.0649 24.6567C21.4075 24.4278 21.8103 24.3056 22.2223 24.3056C22.7749 24.3056 23.3048 24.5251 23.6955 24.9158C24.0862 25.3065 24.3057 25.8364 24.3057 26.3889Z" fill="#300D5F"/>
</svg>
