<svg width="25" height="25" viewBox="0 0 25 25" fill="none" xmlns="http://www.w3.org/2000/svg">
<path d="M18.2288 6.77051H18.2393M7.29134 2.08301H17.708C20.5845 2.08301 22.9163 4.41486 22.9163 7.29134V17.708C22.9163 20.5845 20.5845 22.9163 17.708 22.9163H7.29134C4.41486 22.9163 2.08301 20.5845 2.08301 17.708V7.29134C2.08301 4.41486 4.41486 2.08301 7.29134 2.08301ZM16.6663 11.8434C16.7949 12.7103 16.6468 13.5957 16.2432 14.3736C15.8395 15.1516 15.2009 15.7824 14.418 16.1764C13.6352 16.5704 12.7481 16.7076 11.8828 16.5684C11.0175 16.4291 10.2182 16.0206 9.59847 15.4009C8.97876 14.7812 8.57023 13.9818 8.431 13.1166C8.29176 12.2513 8.42891 11.3641 8.82293 10.5813C9.21695 9.79848 9.84779 9.15982 10.6257 8.75618C11.4036 8.35253 12.289 8.20445 13.1559 8.33301C14.0402 8.46414 14.8589 8.8762 15.491 9.50833C16.1232 10.1405 16.5352 10.9591 16.6663 11.8434Z" stroke="#5CFEC5" stroke-width="1.5625" stroke-linecap="round" stroke-linejoin="round"/>
</svg>
