<svg width="25" height="25" viewBox="0 0 25 25" fill="none" xmlns="http://www.w3.org/2000/svg">
<path d="M6.25122 22.9175H2.08423V8.85498H6.25122V22.9175ZM13.5432 8.85498V9.73096C14.1947 9.5007 14.8958 9.3755 15.6262 9.37549C19.078 9.37549 21.8762 12.1737 21.8762 15.6255V22.9175H17.7092V15.6255C17.7092 14.4749 16.7768 13.5425 15.6262 13.5425C14.4757 13.5425 13.5432 14.4749 13.5432 15.6255V22.9175H9.37622V8.85498H13.5432ZM4.16724 2.0835C5.31772 2.0835 6.25104 3.01606 6.25122 4.1665C6.25122 5.3171 5.31783 6.25049 4.16724 6.25049C3.01679 6.25031 2.08423 5.31699 2.08423 4.1665C2.0844 3.01617 3.0169 2.08367 4.16724 2.0835Z" fill="#5CFEC5"/>
</svg>
