<svg width="62" height="62" viewBox="0 0 62 62" fill="none" xmlns="http://www.w3.org/2000/svg">
<path d="M28.1083 32.1211L32.1199 28.109C32.1986 28.0303 32.2611 27.937 32.3037 27.8341C32.3464 27.7313 32.3683 27.6211 32.3683 27.5098C32.3683 27.3985 32.3464 27.2883 32.3037 27.1855C32.2611 27.0827 32.1986 26.9893 32.1199 26.9106L29.9828 24.7736C30.4221 23.9686 30.7743 23.119 31.0334 22.2393H34.054C34.2788 22.2393 34.4944 22.15 34.6533 21.9911C34.8123 21.8321 34.9016 21.6165 34.9016 21.3917V15.7187C34.9016 15.4939 34.8123 15.2783 34.6533 15.1193C34.4944 14.9603 34.2788 14.871 34.054 14.871H31.0402C30.7808 13.9901 30.4275 13.1397 29.9862 12.3343L32.1199 10.2002C32.1986 10.1215 32.2611 10.0281 32.3038 9.92522C32.3464 9.82237 32.3684 9.71212 32.3684 9.60078C32.3684 9.48944 32.3464 9.37919 32.3038 9.27633C32.2611 9.17348 32.1986 9.08004 32.1199 9.00136L28.1083 4.98929C28.0296 4.91052 27.9362 4.84804 27.8334 4.8054C27.7306 4.76277 27.6204 4.74082 27.5091 4.74082C27.3978 4.74082 27.2876 4.76277 27.1848 4.8054C27.082 4.84804 26.9886 4.91052 26.9099 4.98929L24.7758 7.12393C23.9705 6.68263 23.12 6.32927 22.2391 6.06993V3.05518C22.2392 2.94384 22.2173 2.83359 22.1747 2.73072C22.1321 2.62785 22.0697 2.53438 21.991 2.45565C21.9122 2.37693 21.8188 2.31449 21.7159 2.27191C21.613 2.22934 21.5028 2.20746 21.3914 2.20752H15.7179C15.6066 2.20746 15.4964 2.22934 15.3935 2.27191C15.2906 2.31449 15.1971 2.37693 15.1184 2.45565C15.0397 2.53438 14.9773 2.62785 14.9347 2.73072C14.8921 2.83359 14.8702 2.94384 14.8703 3.05518V6.07525C13.9908 6.3347 13.1414 6.68705 12.3365 7.12635L10.1999 4.98929C10.1213 4.91051 10.0278 4.84801 9.92498 4.80537C9.82212 4.76273 9.71187 4.74078 9.60053 4.74078C9.48919 4.74078 9.37894 4.76273 9.27609 4.80537C9.17324 4.84801 9.0798 4.91051 9.00112 4.98929L4.98904 9.00136C4.91026 9.08004 4.84777 9.17348 4.80513 9.27633C4.76248 9.37919 4.74054 9.48944 4.74054 9.60078C4.74054 9.71212 4.76248 9.82237 4.80513 9.92522C4.84777 10.0281 4.91026 10.1215 4.98904 10.2002L7.12513 12.3368C6.68586 13.1418 6.33352 13.9914 6.07404 14.871H3.05493C2.9436 14.871 2.83334 14.8928 2.73047 14.9354C2.6276 14.978 2.53413 15.0404 2.45541 15.1192C2.37668 15.1979 2.31425 15.2913 2.27167 15.3942C2.22909 15.4971 2.20721 15.6073 2.20728 15.7187V21.3917C2.20721 21.503 2.22909 21.6133 2.27167 21.7161C2.31425 21.819 2.37668 21.9125 2.45541 21.9912C2.53413 22.0699 2.6276 22.1324 2.73047 22.1749C2.83334 22.2175 2.9436 22.2394 3.05493 22.2393H6.0692C6.32867 23.1203 6.6822 23.9707 7.12368 24.776L4.98904 26.9106C4.91028 26.9893 4.84779 27.0827 4.80516 27.1855C4.76252 27.2883 4.74058 27.3985 4.74058 27.5098C4.74058 27.6211 4.76252 27.7313 4.80516 27.8341C4.84779 27.937 4.91028 28.0303 4.98904 28.109L9.00015 32.1211C9.15924 32.2798 9.37482 32.369 9.59956 32.369C9.82431 32.369 10.0399 32.2798 10.199 32.1211L12.3331 29.9864C13.1387 30.4277 13.9893 30.7813 14.8703 31.0409V34.0557C14.8703 34.2805 14.9596 34.4961 15.1186 34.655C15.2775 34.814 15.4931 34.9033 15.7179 34.9033H21.3914C21.6162 34.9033 21.8318 34.814 21.9908 34.655C22.1498 34.4961 22.2391 34.2805 22.2391 34.0557V31.0351C23.1186 30.7757 23.968 30.4233 24.7729 29.984L26.9099 32.1211C27.0689 32.2799 27.2844 32.3691 27.5091 32.3691C27.7338 32.3691 27.9493 32.2799 28.1083 32.1211ZM25.5115 28.325C25.3769 28.1901 25.2007 28.1046 25.0115 28.0823C24.8222 28.06 24.631 28.1021 24.4687 28.202C23.4559 28.8247 22.3507 29.2824 21.1943 29.5582C21.0092 29.6027 20.8445 29.708 20.7265 29.8574C20.6085 30.0067 20.5442 30.1914 20.5438 30.3817V33.2056H16.5656V30.3894C16.5653 30.1989 16.5009 30.0141 16.3827 29.8647C16.2645 29.7153 16.0994 29.6101 15.9141 29.566C14.7579 29.2895 13.6533 28.8298 12.6422 28.2044C12.4797 28.1042 12.2882 28.0618 12.0986 28.0839C11.909 28.1061 11.7324 28.1915 11.5974 28.3265L9.60029 30.3221L6.78801 27.5088L8.78364 25.5127C8.91847 25.3778 9.00386 25.2013 9.02601 25.0118C9.04816 24.8223 9.00577 24.6309 8.9057 24.4684C8.28036 23.4567 7.82101 22.3514 7.54509 21.1945C7.501 21.0092 7.39578 20.8441 7.24639 20.7259C7.09699 20.6077 6.91214 20.5433 6.72165 20.5431H3.90259V16.5658H6.72601C6.91635 16.5655 7.10106 16.5012 7.25041 16.3832C7.39977 16.2652 7.5051 16.1004 7.54945 15.9153C7.82494 14.7591 8.28275 13.6542 8.9057 12.6419C9.00536 12.4794 9.04742 12.288 9.0251 12.0987C9.00278 11.9093 8.91739 11.733 8.78267 11.5981L6.78801 9.60053L9.60029 6.78825L11.5979 8.78582C11.7326 8.92057 11.9089 9.006 12.0982 9.02832C12.2875 9.05064 12.4788 9.00856 12.6412 8.90885C13.6538 8.2862 14.7588 7.8284 15.9151 7.5526C16.1001 7.50817 16.2649 7.40282 16.3829 7.25348C16.5009 7.10414 16.5652 6.91948 16.5656 6.72916V3.90283H20.5438V6.72141C20.544 6.9119 20.6085 7.09675 20.7267 7.24615C20.8449 7.39554 21.0099 7.50076 21.1953 7.54485C22.3521 7.82068 23.4574 8.27986 24.4692 8.90497C24.6314 9.00547 24.823 9.04811 25.0126 9.02595C25.2022 9.00379 25.3787 8.91813 25.5135 8.78291L27.5091 6.78729L30.3219 9.60053L28.3262 11.5966C28.1914 11.7317 28.1061 11.9083 28.0839 12.0979C28.0618 12.2874 28.1041 12.4789 28.2042 12.6414C28.8295 13.6529 29.2887 14.7581 29.5643 15.9148C29.6084 16.1002 29.7136 16.2652 29.863 16.3834C30.0124 16.5016 30.1972 16.5661 30.3877 16.5663H33.2063V20.544H30.3824C30.192 20.5444 30.0073 20.6089 29.858 20.7269C29.7086 20.845 29.6033 21.0099 29.559 21.195C29.2832 22.3513 28.8254 23.4564 28.2027 24.4689C28.1029 24.6312 28.0607 24.8225 28.083 25.0117C28.1054 25.201 28.1909 25.3771 28.3257 25.5118L30.3219 27.5098L27.5091 30.3221L25.5115 28.325Z" fill="white"/>
<path d="M18.5548 11.2173C17.1036 11.2173 15.6849 11.6476 14.4782 12.4539C13.2715 13.2602 12.331 14.4062 11.7756 15.747C11.2202 17.0878 11.0749 18.5632 11.358 19.9866C11.6412 21.41 12.34 22.7175 13.3662 23.7437C14.3924 24.7699 15.6999 25.4688 17.1233 25.7519C18.5467 26.035 20.0221 25.8897 21.3629 25.3343C22.7037 24.7789 23.8497 23.8384 24.656 22.6317C25.4623 21.425 25.8926 20.0064 25.8926 18.5551C25.8905 16.6096 25.1167 14.7445 23.741 13.3689C22.3654 11.9933 20.5003 11.2195 18.5548 11.2173ZM18.5548 24.1985C17.4389 24.1985 16.348 23.8676 15.4201 23.2477C14.4923 22.6277 13.7691 21.7465 13.342 20.7156C12.9149 19.6846 12.8031 18.5501 13.0207 17.4556C13.2383 16.3611 13.7756 15.3557 14.5647 14.5666C15.3537 13.7774 16.359 13.2399 17.4535 13.0221C18.5479 12.8043 19.6824 12.9159 20.7135 13.3428C21.7445 13.7697 22.6258 14.4928 23.2459 15.4205C23.866 16.3483 24.1971 17.4391 24.1973 18.5551C24.1955 20.051 23.6005 21.4852 22.5427 22.5429C21.4849 23.6007 20.0508 24.1958 18.5548 24.1976V24.1985ZM58.9449 39.761H55.9302C55.6709 38.8801 55.3175 38.0296 54.8762 37.2243L57.0103 35.0897C57.0891 35.0111 57.1516 34.9177 57.1942 34.8149C57.2369 34.712 57.2588 34.6018 57.2588 34.4905C57.2588 34.3792 57.2369 34.269 57.1942 34.1662C57.1516 34.0634 57.0891 33.97 57.0103 33.8914L52.9988 29.8803C52.9201 29.8015 52.8266 29.739 52.7238 29.6963C52.6209 29.6537 52.5107 29.6317 52.3993 29.6317C52.288 29.6317 52.1777 29.6537 52.0749 29.6963C51.972 29.739 51.8786 29.8015 51.7999 29.8803L49.6658 32.0139C48.8605 31.5727 48.0103 31.2192 47.1296 30.9594V27.9447C47.1296 27.7199 47.0403 27.5043 46.8813 27.3453C46.7223 27.1863 46.5067 27.097 46.2819 27.097H40.6084C40.3836 27.097 40.168 27.1863 40.0091 27.3453C39.8501 27.5043 39.7608 27.7199 39.7608 27.9447V30.9653C38.8811 31.2246 38.0315 31.577 37.2265 32.0163L35.09 29.8803C35.0113 29.8015 34.9179 29.739 34.8151 29.6964C34.7123 29.6537 34.6021 29.6318 34.4908 29.6318C34.3795 29.6318 34.2693 29.6537 34.1665 29.6964C34.0636 29.739 33.9702 29.8015 33.8916 29.8803L29.8795 33.8914C29.7207 34.0503 29.6315 34.2658 29.6315 34.4905C29.6315 34.7152 29.7207 34.9308 29.8795 35.0897L32.0171 37.2268C31.5776 38.0317 31.2254 38.8813 30.9665 39.761H27.9449C27.7201 39.761 27.5045 39.8503 27.3456 40.0093C27.1866 40.1683 27.0973 40.3839 27.0973 40.6087V46.2817C27.0973 46.5065 27.1866 46.7221 27.3456 46.8811C27.5045 47.04 27.7201 47.1293 27.9449 47.1293H30.9597C31.219 48.0102 31.5724 48.8607 32.0137 49.666L29.8795 51.8002C29.7207 51.9592 29.6314 52.1748 29.6314 52.3996C29.6314 52.6244 29.7207 52.84 29.8795 52.999L33.8916 57.0111C33.9702 57.0898 34.0636 57.1523 34.1665 57.195C34.2693 57.2376 34.3795 57.2595 34.4908 57.2595C34.6021 57.2595 34.7123 57.2376 34.8151 57.195C34.9179 57.1523 35.0113 57.0898 35.09 57.0111L37.2241 54.8798C38.0294 55.3212 38.8798 55.6746 39.7608 55.9338V58.9486C39.7607 59.0599 39.7826 59.1702 39.8252 59.273C39.8678 59.3759 39.9302 59.4694 40.0089 59.5481C40.0876 59.6268 40.1811 59.6893 40.284 59.7318C40.3868 59.7744 40.4971 59.7963 40.6084 59.7962H46.2814C46.3928 59.7963 46.503 59.7744 46.6059 59.7318C46.7088 59.6893 46.8022 59.6268 46.881 59.5481C46.9597 59.4694 47.0221 59.3759 47.0647 59.273C47.1073 59.1702 47.1292 59.0599 47.1291 58.9486V55.9285C48.0088 55.669 48.8584 55.3165 49.6633 54.8769L51.7999 57.0135C51.8786 57.0923 51.972 57.1548 52.0749 57.1974C52.1777 57.24 52.288 57.262 52.3993 57.262C52.5107 57.262 52.6209 57.24 52.7238 57.1974C52.8266 57.1548 52.9201 57.0923 52.9988 57.0135L57.0103 53.0024C57.0891 52.9237 57.1516 52.8303 57.1943 52.7274C57.2369 52.6246 57.2589 52.5143 57.2589 52.403C57.2589 52.2916 57.2369 52.1814 57.1943 52.0785C57.1516 51.9757 57.0891 51.8822 57.0103 51.8036L54.8738 49.6665C55.3131 48.8616 55.6654 48.0122 55.9249 47.1327H58.9449C59.0563 47.1328 59.1665 47.1109 59.2694 47.0683C59.3723 47.0258 59.4657 46.9633 59.5445 46.8846C59.6232 46.8059 59.6856 46.7124 59.7282 46.6095C59.7708 46.5067 59.7927 46.3964 59.7926 46.2851V40.6087C59.7927 40.4973 59.7708 40.3871 59.7282 40.2842C59.6856 40.1813 59.6232 40.0879 59.5445 40.0092C59.4657 39.9304 59.3723 39.868 59.2694 39.8254C59.1665 39.7828 59.0563 39.761 58.9449 39.761ZM58.0973 45.4345H55.2739C55.0835 45.4348 54.8988 45.4991 54.7495 45.6171C54.6001 45.7351 54.4948 45.8999 54.4504 46.085C54.1746 47.2413 53.7168 48.3463 53.0942 49.3589C52.9945 49.5214 52.9525 49.7126 52.9748 49.9019C52.9972 50.0912 53.0825 50.2674 53.2172 50.4023L55.2153 52.4003L52.4025 55.2126L50.4049 53.215C50.27 53.0805 50.0938 52.9952 49.9045 52.9729C49.7153 52.9506 49.5241 52.9925 49.3616 53.092C48.3488 53.7146 47.2436 54.1723 46.0872 54.4482C45.9021 54.4926 45.7373 54.5979 45.6193 54.7473C45.5013 54.8966 45.437 55.0813 45.4367 55.2717V58.0951H41.4561V55.2765C41.4558 55.086 41.3914 54.9012 41.2732 54.7518C41.155 54.6024 40.9899 54.4972 40.8046 54.4531C39.6477 54.1773 38.5425 53.7181 37.5307 53.093C37.3684 52.9925 37.1769 52.95 36.9873 52.9721C36.7977 52.9943 36.6212 53.0799 36.4864 53.215L34.4908 55.2106L31.678 52.3998L33.6736 50.4037C33.8087 50.2687 33.8942 50.0922 33.9163 49.9025C33.9385 49.7129 33.896 49.5214 33.7957 49.3589C33.1707 48.3473 32.7117 47.2422 32.4361 46.0855C32.392 45.9002 32.2868 45.7351 32.1374 45.6169C31.988 45.4987 31.8031 45.4343 31.6126 45.434H28.7926V41.4563H31.616C31.8064 41.4559 31.9911 41.3915 32.1405 41.2734C32.2898 41.1553 32.3951 40.9905 32.4395 40.8053C32.7152 39.6491 33.173 38.544 33.7957 37.5314C33.8955 37.3691 33.9377 37.1779 33.9154 36.9886C33.8931 36.7994 33.8075 36.6232 33.6727 36.4886L31.678 34.4905L34.4908 31.6783L36.4883 33.6758C36.6229 33.8108 36.7991 33.8965 36.9884 33.9188C37.1777 33.9411 37.3689 33.8989 37.5312 33.7988C38.5439 33.1762 39.6492 32.7184 40.8056 32.4426C40.9906 32.3982 41.1554 32.2928 41.2734 32.1435C41.3913 31.9941 41.4557 31.8095 41.4561 31.6192V28.7953H45.4343V31.6138C45.4345 31.8043 45.499 31.9892 45.6172 32.1386C45.7354 32.288 45.9004 32.3932 46.0858 32.4373C47.2424 32.7134 48.3475 33.1727 49.3592 33.7979C49.5216 33.8983 49.7131 33.9409 49.9028 33.9188C50.0925 33.8966 50.2691 33.811 50.404 33.6758L52.3996 31.6783L55.2123 34.491L53.2162 36.4871C53.0813 36.6221 52.9959 36.7986 52.9737 36.9881C52.9516 37.1776 52.994 37.369 53.0942 37.5314C53.7192 38.543 54.1783 39.6481 54.4538 40.8048C54.4978 40.9903 54.603 41.1554 54.7524 41.2737C54.9018 41.392 55.0867 41.4565 55.2773 41.4568H58.0958L58.0973 45.4345Z" fill="white"/>
<path d="M43.4453 36.1074C41.994 36.1074 40.5753 36.5377 39.3687 37.344C38.162 38.1503 37.2215 39.2963 36.6661 40.6371C36.1107 41.9779 35.9654 43.4533 36.2485 44.8767C36.5316 46.3001 37.2305 47.6076 38.2567 48.6338C39.2829 49.66 40.5904 50.3588 42.0138 50.642C43.4372 50.9251 44.9126 50.7798 46.2534 50.2244C47.5942 49.669 48.7402 48.7285 49.5465 47.5218C50.3528 46.3151 50.7831 44.8964 50.7831 43.4452C50.7809 41.4997 50.0071 39.6346 48.6315 38.259C47.2559 36.8833 45.3908 36.1095 43.4453 36.1074ZM43.4453 49.0886C42.3293 49.0886 41.2384 48.7577 40.3105 48.1377C39.3826 47.5177 38.6594 46.6364 38.2323 45.6054C37.8053 44.5744 37.6935 43.4399 37.9112 42.3453C38.129 41.2508 38.6664 40.2454 39.4555 39.4563C40.2446 38.6672 41.25 38.1298 42.3445 37.9121C43.4391 37.6943 44.5736 37.8061 45.6046 38.2331C46.6356 38.6602 47.5169 39.3834 48.1369 40.3113C48.7569 41.2392 49.0878 42.3301 49.0878 43.4461C49.0859 44.9419 48.4908 46.3759 47.433 47.4335C46.3752 48.4911 44.9411 49.086 43.4453 49.0876V49.0886ZM37.1572 10.1027C42.0822 11.5526 46.3355 14.698 49.1643 18.9823C48.4859 19.5964 48.0569 20.4385 47.959 21.3484C47.8611 22.2583 48.1012 23.1724 48.6335 23.9168C49.1658 24.6612 49.9531 25.1839 50.8458 25.3854C51.7384 25.587 52.674 25.4534 53.4745 25.0099C54.2751 24.5665 54.8846 23.8443 55.1872 22.9806C55.4898 22.117 55.4643 21.1722 55.1156 20.3261C54.7669 19.4801 54.1193 18.7917 53.2961 18.3921C52.4728 17.9925 51.5314 17.9094 50.6509 18.1588C47.6034 13.4853 42.9886 10.0521 37.6362 8.47667C37.5287 8.44282 37.4156 8.43073 37.3034 8.4411C37.1912 8.45148 37.0822 8.48412 36.9828 8.53712C36.8834 8.59011 36.7955 8.66239 36.7243 8.74974C36.6532 8.83709 36.6001 8.93775 36.5683 9.04583C36.5365 9.15392 36.5266 9.26726 36.5391 9.37923C36.5516 9.4912 36.5863 9.59956 36.6412 9.69797C36.696 9.79637 36.77 9.88285 36.8586 9.95235C36.9473 10.0218 37.0485 10.073 37.1572 10.1027ZM53.669 21.736C53.669 22.1356 53.5505 22.5263 53.3285 22.8587C53.1064 23.191 52.7908 23.45 52.4215 23.6029C52.0523 23.7559 51.646 23.7959 51.254 23.7179C50.862 23.64 50.5019 23.4475 50.2193 23.1649C49.9367 22.8823 49.7442 22.5222 49.6662 22.1302C49.5882 21.7382 49.6283 21.3319 49.7812 20.9626C49.9342 20.5934 50.1932 20.2778 50.5255 20.0557C50.8578 19.8337 51.2485 19.7151 51.6482 19.7151C52.184 19.7157 52.6977 19.9287 53.0766 20.3076C53.4554 20.6865 53.6685 21.2002 53.669 21.736ZM24.8434 51.8975C19.9193 50.4471 15.6669 47.3018 12.8386 43.0179C13.5171 42.4038 13.946 41.5617 14.0439 40.6518C14.1418 39.7419 13.9018 38.8278 13.3695 38.0834C12.8372 37.3391 12.0498 36.8163 11.1572 36.6148C10.2645 36.4132 9.32892 36.5468 8.52841 36.9903C7.7279 37.4337 7.11835 38.156 6.81575 39.0196C6.51316 39.8832 6.53864 40.828 6.88735 41.6741C7.23606 42.5201 7.88366 43.2085 8.70691 43.6081C9.53016 44.0078 10.4716 44.0908 11.3521 43.8414C14.3989 48.5146 19.0128 51.9477 24.3643 53.5235C24.4422 53.5465 24.5229 53.5581 24.6041 53.5579C24.8077 53.5575 25.0043 53.4838 25.158 53.3503C25.3118 53.2168 25.4123 53.0325 25.4413 52.831C25.4703 52.6294 25.4257 52.4242 25.3159 52.2528C25.206 52.0814 25.0381 51.9553 24.8429 51.8975H24.8434ZM8.33152 40.2643C8.33171 39.8646 8.45039 39.474 8.67256 39.1418C8.89472 38.8096 9.2104 38.5508 9.57967 38.398C9.94894 38.2452 10.3552 38.2053 10.7472 38.2834C11.1391 38.3615 11.4991 38.554 11.7816 38.8366C12.0641 39.1193 12.2565 39.4794 12.3344 39.8713C12.4123 40.2633 12.3722 40.6696 12.2192 41.0388C12.0662 41.408 11.8072 41.7235 11.4749 41.9455C11.1426 42.1676 10.752 42.286 10.3523 42.286C9.81637 42.2855 9.30252 42.0723 8.92363 41.6933C8.54473 41.3142 8.33178 40.8002 8.33152 40.2643Z" fill="white"/>
</svg>
