<svg width="63" height="63" viewBox="0 0 63 63" fill="none" xmlns="http://www.w3.org/2000/svg">
<path d="M56.3888 50.5555C56.3888 51.0712 56.1839 51.5658 55.8193 51.9304C55.4546 52.2951 54.9601 52.4999 54.4444 52.4999H7.7777C7.262 52.4999 6.76742 52.2951 6.40277 51.9304C6.03811 51.5658 5.83325 51.0712 5.83325 50.5555V11.6666C5.83325 11.1509 6.03811 10.6563 6.40277 10.2917C6.76742 9.92703 7.262 9.72217 7.7777 9.72217C8.2934 9.72217 8.78797 9.92703 9.15263 10.2917C9.51728 10.6563 9.72214 11.1509 9.72214 11.6666V38.0843L21.9576 25.8465C22.1381 25.6657 22.3526 25.5223 22.5886 25.4244C22.8247 25.3266 23.0777 25.2762 23.3333 25.2762C23.5888 25.2762 23.8418 25.3266 24.0779 25.4244C24.3139 25.5223 24.5284 25.6657 24.7089 25.8465L31.111 32.251L43.9176 19.4444H38.8888C38.3731 19.4444 37.8785 19.2395 37.5139 18.8749C37.1492 18.5102 36.9444 18.0156 36.9444 17.4999C36.9444 16.9842 37.1492 16.4897 37.5139 16.125C37.8785 15.7604 38.3731 15.5555 38.8888 15.5555H48.611C49.1267 15.5555 49.6213 15.7604 49.986 16.125C50.3506 16.4897 50.5555 16.9842 50.5555 17.4999V27.2222C50.5555 27.7379 50.3506 28.2324 49.986 28.5971C49.6213 28.9618 49.1267 29.1666 48.611 29.1666C48.0953 29.1666 47.6008 28.9618 47.2361 28.5971C46.8714 28.2324 46.6666 27.7379 46.6666 27.2222V22.1933L32.4867 36.3756C32.3061 36.5564 32.0917 36.6998 31.8556 36.7977C31.6196 36.8956 31.3666 36.9459 31.111 36.9459C30.8555 36.9459 30.6025 36.8956 30.3664 36.7977C30.1304 36.6998 29.9159 36.5564 29.7353 36.3756L23.3333 29.9711L9.72214 43.5822V48.6111H54.4444C54.9601 48.6111 55.4546 48.8159 55.8193 49.1806C56.1839 49.5452 56.3888 50.0398 56.3888 50.5555Z" fill="#FCFCFC"/>
</svg>
