<svg width="60" height="60" viewBox="0 0 60 60" fill="none" xmlns="http://www.w3.org/2000/svg">
<g clip-path="url(#clip0_2055_45822)">
<path d="M57.5414 6.88525H58.525C58.7858 6.88525 59.036 6.78162 59.2205 6.59715C59.4049 6.41269 59.5086 6.16251 59.5086 5.90164V1.96721C59.5086 1.70634 59.4049 1.45616 59.2205 1.2717C59.036 1.08724 58.7858 0.983607 58.525 0.983607H54.5905C54.3297 0.983607 54.0795 1.08724 53.895 1.2717C53.7106 1.45616 53.6069 1.70634 53.6069 1.96721V2.95082H33.9348V0.983607C33.9348 0.722738 33.8312 0.472554 33.6467 0.288092C33.4623 0.10363 33.2121 0 32.9512 0L27.0496 0C26.7887 0 26.5385 0.10363 26.354 0.288092C26.1696 0.472554 26.066 0.722738 26.066 0.983607V2.95082H6.39383V1.96721C6.39383 1.70634 6.2902 1.45616 6.10573 1.2717C5.92127 1.08724 5.67109 0.983607 5.41022 0.983607H1.47579C1.21493 0.983607 0.964741 1.08724 0.780279 1.2717C0.595817 1.45616 0.492188 1.70634 0.492188 1.96721L0.492188 5.90164C0.492188 6.16251 0.595817 6.41269 0.780279 6.59715C0.964741 6.78162 1.21493 6.88525 1.47579 6.88525H2.4594V53.1148H1.47579C1.21493 53.1148 0.964741 53.2184 0.780279 53.4028C0.595817 53.5873 0.492188 53.8375 0.492188 54.0984L0.492188 58.0328C0.492188 58.2937 0.595817 58.5438 0.780279 58.7283C0.964741 58.9128 1.21493 59.0164 1.47579 59.0164H5.41022C5.67109 59.0164 5.92127 58.9128 6.10573 58.7283C6.2902 58.5438 6.39383 58.2937 6.39383 58.0328V57.0492H26.066V59.0164C26.066 59.2773 26.1696 59.5274 26.354 59.7119C26.5385 59.8964 26.7887 60 27.0496 60H32.9512C33.2121 60 33.4623 59.8964 33.6467 59.7119C33.8312 59.5274 33.9348 59.2773 33.9348 59.0164V57.0492H53.6069V58.0328C53.6069 58.2937 53.7106 58.5438 53.895 58.7283C54.0795 58.9128 54.3297 59.0164 54.5905 59.0164H58.525C58.7858 59.0164 59.036 58.9128 59.2205 58.7283C59.4049 58.5438 59.5086 58.2937 59.5086 58.0328V54.0984C59.5086 53.8375 59.4049 53.5873 59.2205 53.4028C59.036 53.2184 58.7858 53.1148 58.525 53.1148H57.5414V30V6.88525ZM55.5742 2.95082H57.5414V4.91803H55.5742V2.95082ZM28.0332 1.96721H31.9676V5.90164H28.0332V3.93443V1.96721ZM2.4594 2.95082H4.42661V4.91803H2.4594V2.95082ZM4.42661 6.88525H5.41022C5.67109 6.88525 5.92127 6.78162 6.10573 6.59715C6.2902 6.41269 6.39383 6.16251 6.39383 5.90164V4.91803H19.6676C12.6869 7.67705 7.19251 13.139 4.42661 19.9377V6.88525ZM4.42661 57.0492H2.4594V55.082H4.42661V57.0492ZM5.41022 53.1148H4.42661V40.0623C7.19251 46.861 12.6869 52.3229 19.6676 55.082H6.39383V54.0984C6.39383 53.8375 6.2902 53.5873 6.10573 53.4028C5.92127 53.2184 5.67109 53.1148 5.41022 53.1148ZM24.3446 23.4925L27.8276 33.0118C26.5794 33.9266 26.0158 35.579 26.5745 37.1026C26.7341 37.5431 26.9796 37.9476 27.2967 38.2925C27.6138 38.6375 27.9962 38.916 28.4217 39.1121C28.8461 39.3102 29.3056 39.4223 29.7736 39.4419C30.2415 39.4615 30.7088 39.3882 31.1483 39.2262C32.0433 38.8987 32.7564 38.2426 33.1578 37.379C33.5591 36.5144 33.6004 35.5466 33.2728 34.6525C32.7161 33.1288 31.2201 32.2298 29.6758 32.3361L26.1909 22.8118L39.7342 33.5744C38.1348 35.7688 37.6912 38.399 38.5587 40.7843L39.6987 43.9033L27.7971 48.2567L26.6551 45.1338C25.7738 42.7269 23.6787 41.0184 20.9453 40.4243L24.3446 23.4925ZM31.4256 35.3282C31.5722 35.7285 31.5535 36.1633 31.3735 36.5498C31.2854 36.7408 31.1604 36.9124 31.0056 37.0548C30.8507 37.1971 30.6692 37.3073 30.4715 37.379C30.0712 37.5246 29.6355 37.5079 29.2499 37.3269C28.9204 37.1729 28.6532 36.9114 28.4923 36.5853C28.3314 36.2591 28.2863 35.888 28.3645 35.5328C28.4427 35.1777 28.6396 34.8598 28.9226 34.6314C29.2057 34.4031 29.558 34.278 29.9217 34.2767C30.2497 34.2776 30.5696 34.3788 30.8385 34.5667C31.1073 34.7547 31.3122 35.0204 31.4256 35.3282ZM28.4728 50.1059L40.3745 45.7515L42.5905 51.8125C42.5355 51.8429 42.4814 51.8754 42.4263 51.9049C41.7824 52.2584 41.1238 52.5843 40.4522 52.8816L40.3351 52.9318C39.7408 53.1921 39.1368 53.4297 38.5243 53.6439L38.5056 53.6508C38.4112 53.6843 38.3148 53.7138 38.2194 53.7462C37.4936 53.9886 36.7571 54.1977 36.0122 54.3728C35.3591 54.5262 34.6991 54.658 34.0312 54.7603L33.9338 54.7731V53.1148C33.9338 52.8539 33.8302 52.6037 33.6457 52.4192C33.4613 52.2348 33.2111 52.1311 32.9502 52.1311H29.2135L28.4728 50.1059ZM31.9676 58.0328H28.0332V54.0984H31.9676V56.0656V58.0328ZM57.5414 57.0492H55.5742V55.082H57.5414V57.0492ZM55.5742 40.1046V53.1148H54.5905C54.3297 53.1148 54.0795 53.2184 53.895 53.4028C53.7106 53.5873 53.6069 53.8375 53.6069 54.0984V55.082H40.3184C40.3361 55.0751 40.3528 55.0662 40.3705 55.0584C41.1152 54.7577 41.8461 54.4239 42.561 54.058C43.1551 53.7594 43.7384 53.4399 44.3099 53.1C44.8965 52.7477 45.47 52.374 46.0292 51.9797C46.2073 51.8557 46.3774 51.7249 46.5515 51.597C47.1233 51.1785 47.6788 50.7382 48.2168 50.2771C48.5758 49.9692 48.922 49.6515 49.2623 49.3269C49.4109 49.1852 49.5633 49.0466 49.7089 48.902C50.1781 48.4328 50.6335 47.9528 51.0643 47.4541C51.1056 47.4069 51.142 47.3557 51.1824 47.3075C51.5709 46.8511 51.9427 46.3829 52.2987 45.9039C52.4256 45.7328 52.5446 45.5577 52.6676 45.3846C53.3366 44.4422 53.9413 43.4557 54.4774 42.4318C54.566 42.2646 54.6594 42.0993 54.744 41.9302C55.0361 41.3439 55.3105 40.7489 55.5594 40.142C55.5624 40.1292 55.5692 40.1174 55.5742 40.1046ZM44.304 50.7698L40.4069 40.1095C39.6732 38.0931 40.2004 35.8987 41.8528 34.0859C41.9436 33.9862 42.013 33.8689 42.0565 33.7413C42.1001 33.6137 42.117 33.4785 42.1061 33.3441C42.0952 33.2097 42.0568 33.079 41.9933 32.9601C41.9297 32.8412 41.8424 32.7366 41.7368 32.6528L24.922 19.2905C24.7637 18.6944 24.445 17.04 25.3873 15.841C26.4604 14.4767 28.9528 13.978 32.5922 14.3872C36.2443 14.8062 38.7791 14.2475 40.1335 12.7407C41.1978 11.5584 41.2224 10.077 41.0699 9.38754L39.1499 9.81443C39.1519 9.82328 39.3132 10.7125 38.6719 11.4266C37.7915 12.4033 35.7102 12.7584 32.8145 12.4338C28.3961 11.9292 25.3794 12.6708 23.841 14.6262C22.2869 16.6023 22.8171 19.0997 23.0542 19.9269L18.8158 41.04C18.7881 41.1741 18.7889 41.3126 18.8181 41.4464C18.8473 41.5802 18.9042 41.7064 18.9853 41.8168C19.0663 41.9272 19.1696 42.0194 19.2885 42.0874C19.4074 42.1554 19.5392 42.1976 19.6755 42.2115C22.1974 42.48 24.0683 43.7921 24.8079 45.8125L27.1184 52.1311H27.0496C26.7887 52.1311 26.5385 52.2348 26.354 52.4192C26.1696 52.6037 26.066 52.8539 26.066 53.1148V54.779C13.6538 52.9131 4.42661 42.4446 4.42661 30C4.42661 17.5554 13.6538 7.08688 26.066 5.22098V6.88525C26.066 7.14611 26.1696 7.3963 26.354 7.58076C26.5385 7.76522 26.7887 7.86885 27.0496 7.86885H32.9512C33.2121 7.86885 33.4623 7.76522 33.6467 7.58076C33.8312 7.3963 33.9348 7.14611 33.9348 6.88525V5.22098C46.3469 7.08688 55.5742 17.5554 55.5742 30C55.5742 38.4285 51.3801 46.1016 44.304 50.7698ZM40.3332 4.91803H53.6069V5.90164C53.6069 6.16251 53.7106 6.41269 53.895 6.59715C54.0795 6.78162 54.3297 6.88525 54.5905 6.88525H55.5742V19.9377C52.8083 13.139 47.3138 7.67705 40.3332 4.91803Z" fill="white"/>
</g>
<defs>
<clipPath id="clip0_2055_45822">
<rect width="60" height="60" fill="white"/>
</clipPath>
</defs>
</svg>
