<svg width="62" height="62" viewBox="0 0 62 62" fill="none" xmlns="http://www.w3.org/2000/svg">
<path d="M61.0138 52.4293L50.1275 41.543L50.1268 41.5422L50.126 41.5415L46.2346 37.65C44.92 36.3354 42.7806 36.3349 41.4656 37.65L40.9886 38.127L39.3451 36.4836C42.5648 32.6232 44.5048 27.6603 44.5048 22.2523C44.5045 9.98236 34.5222 0 22.2521 0C9.98212 0 0 9.98236 0 22.2523C0 34.5222 9.98212 44.5045 22.2521 44.5045C27.6601 44.5045 32.6231 42.5646 36.4835 39.345L38.1269 40.9883L37.6498 41.4655C36.3354 42.7802 36.3354 44.9195 37.65 46.2344L52.4292 61.0136C53.7469 62.3315 55.8804 62.3319 57.1984 61.0137L61.0137 57.1984C62.3287 55.8837 62.3287 53.7443 61.0138 52.4293ZM22.2521 40.4578C12.2136 40.4578 4.04662 32.2908 4.04662 22.2523C4.04662 12.2137 12.2136 4.04674 22.2521 4.04674C32.2907 4.04674 40.4578 12.2137 40.4578 22.2523C40.4578 32.2908 32.2907 40.4578 22.2521 40.4578ZM40.9885 43.85L43.8499 40.9886L45.8344 42.9731L42.973 45.8346L40.9885 43.85ZM54.8139 57.6753L45.8344 48.6959L48.6959 45.8344L57.6753 54.8139L54.8139 57.6753Z" fill="white"/>
<path d="M22.2517 8.09326C21.1342 8.09326 20.2283 8.9992 20.2283 10.1167C20.2283 11.2342 21.1342 12.1401 22.2517 12.1401C27.8277 12.1401 32.364 16.6761 32.364 22.2518C32.364 23.3693 33.2699 24.2752 34.3874 24.2752C35.5049 24.2752 36.4109 23.3693 36.4109 22.2518C36.4109 14.4447 30.059 8.09326 22.2517 8.09326Z" fill="white"/>
</svg>
