<svg width="88" height="88" viewBox="0 0 88 88" fill="none" xmlns="http://www.w3.org/2000/svg">
<path d="M76.0267 45.8438L51.3315 70.5389C50.8167 71.0538 50.1184 71.343 49.3902 71.343C48.6621 71.343 47.9638 71.0538 47.4489 70.5389C46.934 70.024 46.6448 69.3257 46.6448 68.5976C46.6448 67.8695 46.934 67.1711 47.4489 66.6563L67.4622 46.6464H13.7195C12.9918 46.6464 12.2938 46.3573 11.7793 45.8427C11.2647 45.3281 10.9756 44.6302 10.9756 43.9025C10.9756 43.1747 11.2647 42.4768 11.7793 41.9622C12.2938 41.4477 12.9918 41.1586 13.7195 41.1586H67.4622L47.4489 21.1487C46.934 20.6338 46.6448 19.9355 46.6448 19.2073C46.6448 18.4792 46.934 17.7809 47.4489 17.266C47.9638 16.7512 48.6621 16.4619 49.3902 16.4619C50.1184 16.4619 50.8167 16.7512 51.3315 17.266L76.0267 41.9612C76.2818 42.216 76.4842 42.5186 76.6222 42.8517C76.7603 43.1848 76.8314 43.5419 76.8314 43.9025C76.8314 44.2631 76.7603 44.6201 76.6222 44.9532C76.4842 45.2863 76.2818 45.5889 76.0267 45.8438Z" fill="#5CFFC5"/>
</svg>
