<svg width="27" height="27" viewBox="0 0 27 27" fill="none" xmlns="http://www.w3.org/2000/svg">
<path d="M19.1668 3.33325H7.50016C7.05814 3.33325 6.63421 3.50885 6.32165 3.82141C6.00909 4.13397 5.8335 4.55789 5.8335 4.99992V23.3333C5.83357 23.482 5.87344 23.628 5.94897 23.7561C6.0245 23.8842 6.13294 23.9897 6.26304 24.0618C6.39313 24.1339 6.54014 24.1698 6.68881 24.1659C6.83747 24.162 6.98238 24.1183 7.1085 24.0395L13.3335 20.1489L19.5595 24.0395C19.6856 24.1181 19.8304 24.1615 19.9789 24.1652C20.1275 24.169 20.2743 24.133 20.4042 24.061C20.5341 23.989 20.6424 23.8835 20.7179 23.7556C20.7934 23.6276 20.8333 23.4818 20.8335 23.3333V4.99992C20.8335 4.55789 20.6579 4.13397 20.3453 3.82141C20.0328 3.50885 19.6089 3.33325 19.1668 3.33325ZM19.1668 21.8301L13.7741 18.4603C13.6417 18.3776 13.4886 18.3337 13.3325 18.3337C13.1763 18.3337 13.0232 18.3776 12.8908 18.4603L7.50016 21.8301V4.99992H19.1668V21.8301Z" fill="#EFF1F9"/>
</svg>
