<svg width="27" height="27" viewBox="0 0 27 27" fill="none" xmlns="http://www.w3.org/2000/svg">
<path d="M13.3333 2.5C11.4629 2.49959 9.62432 2.98343 7.99644 3.90441C6.36856 4.82539 5.00685 6.15214 4.04385 7.75552C3.08086 9.3589 2.54938 11.1843 2.50116 13.054C2.45294 14.9237 2.88961 16.7741 3.76867 18.425L2.58638 21.9719C2.48845 22.2655 2.47424 22.5807 2.54534 22.8819C2.61644 23.1832 2.77004 23.4588 2.98893 23.6777C3.20783 23.8965 3.48336 24.0501 3.78464 24.1213C4.08592 24.1924 4.40105 24.1781 4.69471 24.0802L8.24159 22.8979C9.69447 23.6707 11.3043 24.1023 12.9489 24.16C14.5935 24.2177 16.2296 23.9 17.7331 23.231C19.2366 22.5619 20.5679 21.5592 21.626 20.2988C22.684 19.0385 23.4411 17.5536 23.8396 15.957C24.2382 14.3604 24.2677 12.694 23.9261 11.0842C23.5845 9.47445 22.8806 7.96368 21.8679 6.66658C20.8552 5.36947 19.5603 4.32013 18.0815 3.59818C16.6027 2.87624 14.9789 2.50068 13.3333 2.5ZM13.3333 22.5C11.7218 22.5011 10.1386 22.0767 8.74367 21.2698C8.64154 21.2106 8.52799 21.1737 8.41055 21.1617C8.2931 21.1497 8.17444 21.1627 8.06242 21.2L4.16659 22.5L5.46555 18.6042C5.50299 18.4922 5.51623 18.3736 5.50437 18.2562C5.49252 18.1387 5.45585 18.0251 5.3968 17.9229C4.38635 16.1759 3.98066 14.1444 4.24266 12.1433C4.50466 10.1422 5.41971 8.28356 6.84585 6.85562C8.27199 5.42767 10.1295 4.51028 12.1302 4.24575C14.131 3.98122 16.1631 4.38435 17.9113 5.39259C19.6595 6.40083 21.0262 7.95782 21.7993 9.82203C22.5723 11.6862 22.7085 13.7535 22.1868 15.703C21.6651 17.6525 20.5146 19.3754 18.9138 20.6044C17.313 21.8333 15.3514 22.4997 13.3333 22.5Z" fill="#EFF1F9"/>
</svg>
