<svg width="27" height="27" viewBox="0 0 27 27" fill="none" xmlns="http://www.w3.org/2000/svg">
<path d="M22.4998 11.6667V21.6667C22.4998 22.1087 22.3242 22.5326 22.0117 22.8452C21.6991 23.1577 21.2752 23.3333 20.8332 23.3333H5.83317C5.39114 23.3333 4.96722 23.1577 4.65466 22.8452C4.3421 22.5326 4.1665 22.1087 4.1665 21.6667V11.6667C4.1665 11.2246 4.3421 10.8007 4.65466 10.4882C4.96722 10.1756 5.39114 10 5.83317 10H8.33317C8.55418 10 8.76615 10.0878 8.92243 10.2441C9.07871 10.4004 9.1665 10.6123 9.1665 10.8333C9.1665 11.0544 9.07871 11.2663 8.92243 11.4226C8.76615 11.5789 8.55418 11.6667 8.33317 11.6667H5.83317V21.6667H20.8332V11.6667H18.3332C18.1122 11.6667 17.9002 11.5789 17.7439 11.4226C17.5876 11.2663 17.4998 11.0544 17.4998 10.8333C17.4998 10.6123 17.5876 10.4004 17.7439 10.2441C17.9002 10.0878 18.1122 10 18.3332 10H20.8332C21.2752 10 21.6991 10.1756 22.0117 10.4882C22.3242 10.8007 22.4998 11.2246 22.4998 11.6667ZM9.75609 7.25625L12.4998 4.51146V14.1667C12.4998 14.3877 12.5876 14.5996 12.7439 14.7559C12.9002 14.9122 13.1122 15 13.3332 15C13.5542 15 13.7661 14.9122 13.9224 14.7559C14.0787 14.5996 14.1665 14.3877 14.1665 14.1667V4.51146L16.9103 7.25625C17.0666 7.41262 17.2787 7.50047 17.4998 7.50047C17.721 7.50047 17.9331 7.41262 18.0894 7.25625C18.2458 7.09989 18.3336 6.88781 18.3336 6.66667C18.3336 6.44553 18.2458 6.23346 18.0894 6.07709L13.9228 1.91042C13.8454 1.83294 13.7535 1.77147 13.6523 1.72954C13.5511 1.6876 13.4427 1.66602 13.3332 1.66602C13.2237 1.66602 13.1152 1.6876 13.0141 1.72954C12.9129 1.77147 12.821 1.83294 12.7436 1.91042L8.57692 6.07709C8.42055 6.23346 8.33271 6.44553 8.33271 6.66667C8.33271 6.88781 8.42055 7.09989 8.57692 7.25625C8.73329 7.41262 8.94537 7.50047 9.1665 7.50047C9.38764 7.50047 9.59972 7.41262 9.75609 7.25625Z" fill="#EFF1F9"/>
</svg>
