<svg width="18" height="18" viewBox="0 0 18 18" fill="none" xmlns="http://www.w3.org/2000/svg">
<g clip-path="url(#clip0_2055_45073)">
<path d="M12.9634 4.81527H12.9708M5.18564 1.48193H12.593C14.6385 1.48193 16.2967 3.14014 16.2967 5.18564V12.593C16.2967 14.6385 14.6385 16.2967 12.593 16.2967H5.18564C3.14014 16.2967 1.48193 14.6385 1.48193 12.593V5.18564C1.48193 3.14014 3.14014 1.48193 5.18564 1.48193ZM11.8523 8.42267C11.9437 9.03915 11.8384 9.66876 11.5514 10.2219C11.2643 10.7751 10.8102 11.2237 10.2535 11.5039C9.69683 11.7841 9.06597 11.8816 8.45066 11.7826C7.83536 11.6836 7.26694 11.3931 6.82626 10.9524C6.38558 10.5117 6.09507 9.94332 5.99606 9.32802C5.89705 8.71271 5.99457 8.08186 6.27477 7.52517C6.55496 6.96849 7.00355 6.51433 7.55674 6.2273C8.10992 5.94026 8.73953 5.83496 9.35601 5.92638C9.98484 6.01963 10.567 6.31265 11.0165 6.76216C11.466 7.21167 11.7591 7.79384 11.8523 8.42267Z" stroke="#5CFFC5" stroke-width="1.11111" stroke-linecap="round" stroke-linejoin="round"/>
</g>
<defs>
<clipPath id="clip0_2055_45073">
<rect width="17.7778" height="17.7778" fill="white"/>
</clipPath>
</defs>
</svg>
