<svg width="36" height="36" viewBox="0 0 36 36" fill="none" xmlns="http://www.w3.org/2000/svg">
<path d="M31.1109 17.7778C31.1109 18.0725 30.9938 18.3551 30.7855 18.5634C30.5771 18.7718 30.2945 18.8889 29.9998 18.8889H8.23729L16.3415 26.9917C16.4447 27.0949 16.5266 27.2175 16.5824 27.3523C16.6383 27.4872 16.6671 27.6318 16.6671 27.7778C16.6671 27.9238 16.6383 28.0683 16.5824 28.2032C16.5266 28.3381 16.4447 28.4607 16.3415 28.5639C16.2382 28.6671 16.1157 28.749 15.9808 28.8049C15.8459 28.8607 15.7013 28.8895 15.5553 28.8895C15.4093 28.8895 15.2648 28.8607 15.1299 28.8049C14.995 28.749 14.8725 28.6671 14.7692 28.5639L4.76923 18.5639C4.66593 18.4607 4.58397 18.3382 4.52806 18.2033C4.47214 18.0684 4.44336 17.9238 4.44336 17.7778C4.44336 17.6318 4.47214 17.4872 4.52806 17.3523C4.58397 17.2174 4.66593 17.0949 4.76923 16.9917L14.7692 6.99166C14.9777 6.78317 15.2605 6.66605 15.5553 6.66605C15.8502 6.66605 16.133 6.78317 16.3415 6.99166C16.5499 7.20015 16.6671 7.48293 16.6671 7.77777C16.6671 8.07262 16.5499 8.3554 16.3415 8.56389L8.23729 16.6667H29.9998C30.2945 16.6667 30.5771 16.7837 30.7855 16.9921C30.9938 17.2005 31.1109 17.4831 31.1109 17.7778Z" fill="#FCFCFC"/>
</svg>
