<svg width="18" height="18" viewBox="0 0 18 18" fill="none" xmlns="http://www.w3.org/2000/svg">
<path d="M4.44482 16.2964H1.48193V6.29639H4.44482V16.2964ZM9.62939 6.29639V6.92041C10.0927 6.75667 10.5915 6.66752 11.1108 6.66748C13.5654 6.66748 15.5562 8.65722 15.5562 11.1118V16.2964H12.5923V11.1118C12.5923 10.2936 11.929 9.63037 11.1108 9.63037C10.2928 9.63058 9.62939 10.2937 9.62939 11.1118V16.2964H6.6665V6.29639H9.62939ZM2.96338 1.48193C3.78157 1.48193 4.4448 2.1452 4.44482 2.96338C4.44482 3.78158 3.78158 4.44482 2.96338 4.44482C2.1452 4.4448 1.48193 3.78157 1.48193 2.96338C1.48195 2.14521 2.14521 1.48195 2.96338 1.48193Z" fill="#5CFFC5"/>
</svg>
