<svg width="27" height="27" viewBox="0 0 27 27" fill="none" xmlns="http://www.w3.org/2000/svg">
<path d="M23.923 22.7437L18.7074 17.5291C20.2191 15.7142 20.9729 13.3864 20.812 11.0299C20.6511 8.67337 19.5879 6.46959 17.8436 4.87701C16.0992 3.28442 13.808 2.42563 11.4466 2.4793C9.08525 2.53297 6.83545 3.49495 5.16526 5.16514C3.49508 6.83533 2.53309 9.08513 2.47942 11.4465C2.42576 13.8079 3.28454 16.0991 4.87713 17.8434C6.46972 19.5878 8.67349 20.651 11.03 20.8119C13.3865 20.9728 15.7144 20.2189 17.5292 18.7072L22.7438 23.9229C22.8212 24.0003 22.9132 24.0617 23.0143 24.1036C23.1155 24.1455 23.2239 24.1671 23.3334 24.1671C23.4429 24.1671 23.5513 24.1455 23.6525 24.1036C23.7536 24.0617 23.8456 24.0003 23.923 23.9229C24.0004 23.8454 24.0618 23.7535 24.1037 23.6524C24.1456 23.5512 24.1672 23.4428 24.1672 23.3333C24.1672 23.2238 24.1456 23.1154 24.1037 23.0142C24.0618 22.913 24.0004 22.8211 23.923 22.7437ZM4.16674 11.6666C4.16674 10.1833 4.60661 8.73321 5.43072 7.49984C6.25483 6.26647 7.42617 5.30518 8.79662 4.73752C10.1671 4.16987 11.6751 4.02134 13.1299 4.31073C14.5848 4.60012 15.9211 5.31442 16.97 6.36332C18.0189 7.41221 18.7332 8.74858 19.0226 10.2034C19.312 11.6583 19.1635 13.1663 18.5958 14.5367C18.0282 15.9072 17.0669 17.0785 15.8335 17.9026C14.6001 18.7268 13.1501 19.1666 11.6667 19.1666C9.67829 19.1644 7.77192 18.3735 6.36588 16.9675C4.95983 15.5614 4.16895 13.6551 4.16674 11.6666Z" fill="#9E9E9E"/>
</svg>
