<svg width="27" height="27" viewBox="0 0 27 27" fill="none" xmlns="http://www.w3.org/2000/svg">
<path d="M23.7958 9.30624L13.7958 2.63958C13.6589 2.54821 13.498 2.49945 13.3333 2.49945C13.1687 2.49945 13.0078 2.54821 12.8708 2.63958L2.87083 9.30624C2.75668 9.3824 2.6631 9.48558 2.59841 9.60661C2.53371 9.72763 2.49991 9.86276 2.5 9.99999V20.8333C2.5 21.2754 2.67559 21.6993 2.98816 22.0118C3.30072 22.3244 3.72464 22.5 4.16667 22.5H22.5C22.942 22.5 23.3659 22.3244 23.6785 22.0118C23.9911 21.6993 24.1667 21.2754 24.1667 20.8333V9.99999C24.1668 9.86276 24.1329 9.72763 24.0683 9.60661C24.0036 9.48558 23.91 9.3824 23.7958 9.30624ZM10.075 15.8333L4.16667 20V11.6177L10.075 15.8333ZM11.7802 16.6667H14.8865L20.7854 20.8333H5.88125L11.7802 16.6667ZM16.5917 15.8333L22.5 11.6177V20L16.5917 15.8333ZM13.3333 4.33437L21.8656 10.0229L14.8865 15H11.7823L4.80313 10.0229L13.3333 4.33437Z" fill="#300D5F"/>
</svg>
