<svg width="27" height="27" viewBox="0 0 27 27" fill="none" xmlns="http://www.w3.org/2000/svg">
<path d="M13.3332 6.66663C12.5091 6.66663 11.7035 6.911 11.0183 7.36884C10.3331 7.82667 9.79904 8.47742 9.48367 9.23878C9.16831 10.0001 9.08579 10.8379 9.24656 11.6462C9.40734 12.4544 9.80417 13.1969 10.3869 13.7796C10.9696 14.3623 11.712 14.7591 12.5203 14.9199C13.3285 15.0807 14.1663 14.9982 14.9277 14.6828C15.689 14.3674 16.3398 13.8334 16.7976 13.1482C17.2555 12.463 17.4998 11.6574 17.4998 10.8333C17.4998 9.72822 17.0608 8.66842 16.2794 7.88701C15.498 7.10561 14.4382 6.66663 13.3332 6.66663ZM13.3332 13.3333C12.8387 13.3333 12.3554 13.1867 11.9442 12.912C11.5331 12.6373 11.2127 12.2468 11.0235 11.79C10.8343 11.3332 10.7847 10.8305 10.8812 10.3456C10.9777 9.86061 11.2158 9.41516 11.5654 9.06552C11.915 8.71589 12.3605 8.47779 12.8454 8.38133C13.3304 8.28487 13.8331 8.33437 14.2899 8.52359C14.7467 8.71281 15.1371 9.03324 15.4118 9.44437C15.6865 9.85549 15.8332 10.3388 15.8332 10.8333C15.8332 11.4963 15.5698 12.1322 15.1009 12.6011C14.6321 13.0699 13.9962 13.3333 13.3332 13.3333ZM13.3332 1.66663C10.9029 1.66938 8.57289 2.63604 6.8544 4.35453C5.13592 6.07301 4.16926 8.40299 4.1665 10.8333C4.1665 14.1041 5.67796 17.5708 8.5415 20.8593C9.82819 22.3453 11.2764 23.6834 12.8592 24.8489C12.9993 24.9471 13.1663 24.9997 13.3373 24.9997C13.5084 24.9997 13.6753 24.9471 13.8155 24.8489C15.3954 23.683 16.8408 22.3449 18.1248 20.8593C20.9842 17.5708 22.4998 14.1041 22.4998 10.8333C22.4971 8.40299 21.5304 6.07301 19.8119 4.35453C18.0935 2.63604 15.7635 1.66938 13.3332 1.66663ZM13.3332 23.125C11.6113 21.7708 5.83317 16.7968 5.83317 10.8333C5.83317 8.84417 6.62335 6.93651 8.02987 5.52999C9.43639 4.12347 11.344 3.33329 13.3332 3.33329C15.3223 3.33329 17.2299 4.12347 18.6365 5.52999C20.043 6.93651 20.8332 8.84417 20.8332 10.8333C20.8332 16.7947 15.055 21.7708 13.3332 23.125Z" fill="#300D5F"/>
</svg>
