<svg width="27" height="27" viewBox="0 0 27 27" fill="none" xmlns="http://www.w3.org/2000/svg">
<path d="M23.1637 16.5062L18.2564 14.3073L18.2429 14.301C17.9881 14.192 17.7102 14.1483 17.4343 14.1738C17.1584 14.1992 16.8932 14.2931 16.6627 14.4468C16.6355 14.4648 16.6094 14.4842 16.5845 14.5052L14.0491 16.6666C12.4429 15.8864 10.7845 14.2406 10.0043 12.6552L12.1689 10.0812C12.1898 10.0552 12.2095 10.0291 12.2283 10.001C12.3787 9.77112 12.47 9.5076 12.494 9.2339C12.518 8.96021 12.474 8.68482 12.3658 8.43226V8.41976L10.1606 3.50414C10.0176 3.17421 9.77176 2.89936 9.45974 2.72064C9.14772 2.54191 8.78627 2.46889 8.42934 2.51247C7.01785 2.69821 5.72223 3.3914 4.78448 4.46257C3.84672 5.53375 3.33095 6.90965 3.33351 8.3333C3.33351 16.6041 10.0627 23.3333 18.3335 23.3333C19.7572 23.3359 21.1331 22.8201 22.2042 21.8823C23.2754 20.9446 23.9686 19.649 24.1543 18.2375C24.198 17.8807 24.1251 17.5193 23.9466 17.2073C23.7681 16.8953 23.4935 16.6494 23.1637 16.5062ZM18.3335 21.6666C14.7985 21.6628 11.4093 20.2568 8.90968 17.7571C6.41003 15.2575 5.00403 11.8683 5.00017 8.3333C4.99625 7.31611 5.36273 6.33226 6.03115 5.5655C6.69957 4.79874 7.62424 4.3015 8.63246 4.16664C8.63205 4.1708 8.63205 4.17498 8.63246 4.17914L10.82 9.07497L8.66684 11.6521C8.64498 11.6772 8.62513 11.704 8.60746 11.7323C8.45071 11.9728 8.35875 12.2498 8.3405 12.5363C8.32225 12.8228 8.37833 13.1092 8.5033 13.3677C9.44705 15.2979 11.3918 17.2281 13.3429 18.1708C13.6033 18.2946 13.8913 18.3487 14.1789 18.3279C14.4664 18.3071 14.7437 18.2121 14.9835 18.0521C15.0102 18.034 15.036 18.0146 15.0606 17.9937L17.5929 15.8333L22.4887 18.026C22.4887 18.026 22.497 18.026 22.5002 18.026C22.367 19.0357 21.8705 19.9622 21.1036 20.6323C20.3367 21.3023 19.3519 21.6701 18.3335 21.6666Z" fill="#300D5F"/>
</svg>
