<svg width="26" height="26" viewBox="0 0 26 26" fill="none" xmlns="http://www.w3.org/2000/svg">
<path d="M25.2701 12.6312C25.273 13.0015 25.1604 13.3635 24.9481 13.6669C24.7357 13.9702 24.4341 14.1999 24.0852 14.324L16.9262 16.9273L14.3239 24.0852C14.1957 24.4308 13.9648 24.7288 13.6622 24.9392C13.3596 25.1497 12.9998 25.2625 12.6312 25.2625C12.2627 25.2625 11.9029 25.1497 11.6003 24.9392C11.2977 24.7288 11.0668 24.4308 10.9385 24.0852L8.33628 16.9262L1.17725 14.324C0.831707 14.1957 0.533695 13.9648 0.323248 13.6622C0.112801 13.3596 0 12.9998 0 12.6312C0 12.2627 0.112801 11.9029 0.323248 11.6003C0.533695 11.2977 0.831707 11.0668 1.17725 10.9385L8.33628 8.33628L10.9385 1.17725C11.0668 0.831707 11.2977 0.533695 11.6003 0.323248C11.9029 0.112801 12.2627 0 12.6312 0C12.9998 0 13.3596 0.112801 13.6622 0.323248C13.9648 0.533695 14.1957 0.831707 14.3239 1.17725L16.9273 8.33628L24.0852 10.9385C24.4341 11.0626 24.7357 11.2922 24.9481 11.5956C25.1604 11.899 25.273 12.261 25.2701 12.6312Z" fill="#5CFFC5"/>
</svg>
