<svg width="32" height="32" viewBox="0 0 32 32" fill="none" xmlns="http://www.w3.org/2000/svg">
<path d="M15.9293 31.8585C24.7268 31.8585 31.8585 24.7268 31.8585 15.9293C31.8585 7.13178 24.7268 0 15.9293 0C7.13178 0 0 7.13178 0 15.9293C0 24.7268 7.13178 31.8585 15.9293 31.8585Z" fill="white"/>
<path d="M26.5799 11.412C25.8973 11.7147 25.163 11.9194 24.3929 12.0108C25.1792 11.5397 25.7826 10.7944 26.0674 9.90474C25.3317 10.3412 24.5164 10.6578 23.6495 10.8284C22.955 10.0887 21.9654 9.62646 20.8696 9.62646C18.7672 9.62646 17.0621 11.3316 17.0621 13.434C17.0621 13.7324 17.0959 14.0229 17.1612 14.3018C13.9968 14.143 11.191 12.6273 9.31295 10.323C8.98527 10.8852 8.79729 11.5397 8.79729 12.2374C8.79729 13.5581 9.46998 14.724 10.4911 15.4066C9.86723 15.387 9.27973 15.2158 8.76662 14.9299C8.76634 14.9461 8.76634 14.9623 8.76634 14.9782C8.76634 16.823 10.0793 18.3618 11.8208 18.7113C11.5017 18.7988 11.1646 18.845 10.8179 18.845C10.572 18.845 10.3338 18.8215 10.1015 18.7772C10.5859 20.2895 11.9918 21.3904 13.6583 21.4214C12.355 22.4427 10.7134 23.0513 8.92904 23.0513C8.62237 23.0513 8.31854 23.0334 8.02124 22.9979C9.70537 24.0786 11.7073 24.7087 13.8574 24.7087C20.8608 24.7087 24.6908 18.9069 24.6908 13.875C24.6908 13.71 24.6871 13.5456 24.6797 13.3826C25.4242 12.8459 26.0697 12.1755 26.5799 11.412Z" fill="#0A0526"/>
</svg>
