<svg width="32" height="32" viewBox="0 0 32 32" fill="none" xmlns="http://www.w3.org/2000/svg">
<path d="M20.7698 8.51221C22.2923 8.51246 23.5305 9.75076 23.5305 11.2729V20.8101C23.5305 22.3326 22.2919 23.5715 20.7698 23.5718H11.2317C9.70935 23.5718 8.47095 22.3324 8.47095 20.8101V11.2729C8.47095 9.75061 9.70935 8.51221 11.2317 8.51221H20.7698ZM16.0002 11.0854C13.267 11.0855 11.0434 13.3092 11.0432 16.0425C11.0432 18.7762 13.2669 21.0004 16.0002 21.0005C18.7337 21.0005 20.9583 18.7759 20.9583 16.0425C20.9581 13.3092 18.7339 11.0854 16.0002 11.0854ZM21.1174 9.76318C20.4706 9.76344 19.9446 10.2895 19.9446 10.936C19.9447 11.5825 20.4706 12.1086 21.1174 12.1089C21.7641 12.1089 22.2911 11.5827 22.2913 10.936C22.2913 10.2893 21.7642 9.76318 21.1174 9.76318Z" fill="white"/>
<path d="M16.0006 13.1782C14.4226 13.1782 13.1377 14.4624 13.1377 16.0404C13.1377 17.619 14.4226 18.9036 16.0006 18.9036C17.5792 18.9036 18.8631 17.619 18.8631 16.0404C18.8631 14.4628 17.5789 13.1782 16.0006 13.1782Z" fill="white"/>
<path fill-rule="evenodd" clip-rule="evenodd" d="M16 0C24.8364 0 32.001 7.16364 32.001 16C32.0009 24.8363 24.8363 32 16 32C7.16388 31.9998 0.000111424 24.8361 0 16C0 7.16376 7.16381 0.000200145 16 0ZM11.2324 6.41699C8.55511 6.41699 6.37624 8.59521 6.37598 11.2725V20.8105C6.37598 23.4884 8.55495 25.666 11.2324 25.666H20.7695C23.4474 25.666 25.626 23.4884 25.626 20.8105V11.2725C25.6257 8.59521 23.4472 6.41699 20.7695 6.41699H11.2324Z" fill="white"/>
</svg>
