<svg width="32" height="32" viewBox="0 0 32 32" fill="none" xmlns="http://www.w3.org/2000/svg">
<path d="M15.9293 31.8585C24.7268 31.8585 31.8585 24.7268 31.8585 15.9293C31.8585 7.13178 24.7268 0 15.9293 0C7.13178 0 0 7.13178 0 15.9293C0 24.7268 7.13178 31.8585 15.9293 31.8585Z" fill="white"/>
<path d="M17.2152 21.3304C16.011 21.2373 15.505 20.6401 14.5605 20.0668C14.0415 22.7902 13.4071 25.4009 11.5282 26.7647C10.9475 22.6485 12.3795 19.5568 13.0445 16.2752C11.911 14.367 13.1808 10.5262 15.5717 11.4727C18.5143 12.6363 13.0241 18.5678 16.7098 19.3087C20.5577 20.0822 22.1285 12.6321 19.7421 10.2088C16.2944 6.71019 9.70634 10.1293 10.5165 15.1377C10.7138 16.3621 11.9791 16.7338 11.0219 18.4233C8.81529 17.9346 8.15709 16.1943 8.24171 13.8741C8.37829 10.0762 11.6543 7.41695 14.9402 7.04894C19.0959 6.58383 22.9963 8.57491 23.5346 12.4838C24.1403 16.8956 21.6585 21.6734 17.2152 21.3304Z" fill="#0A0526"/>
</svg>
