<svg width="230" height="46" viewBox="0 0 230 46" fill="none" xmlns="http://www.w3.org/2000/svg">
<path fill-rule="evenodd" clip-rule="evenodd" d="M29.0547 13.2852C27.185 12.036 24.9869 11.3692 22.7383 11.3692V0C27.2355 0 31.6318 1.33358 35.3711 3.8321C39.1104 6.33061 42.0248 9.88186 43.7458 14.0367C45.4668 18.1916 45.9171 22.7636 45.0397 27.1744C44.1624 31.5851 41.9968 35.6368 38.8167 38.8167C35.6368 41.9968 31.5851 44.1624 27.1744 45.0397C22.7636 45.9171 18.1916 45.4668 14.0367 43.7458C9.88185 42.0248 6.33061 39.1104 3.8321 35.3711C1.33358 31.6318 0 27.2355 0 22.7383H11.3692C11.3692 24.9869 12.036 27.185 13.2852 29.0547C14.5345 30.9244 16.3101 32.3815 18.3876 33.2421C20.465 34.1026 22.751 34.3277 24.9563 33.889C27.1617 33.4504 29.1875 32.3676 30.7776 30.7776C32.3676 29.1875 33.4504 27.1617 33.889 24.9563C34.3277 22.751 34.1026 20.465 33.2421 18.3876C32.3815 16.3101 30.9244 14.5345 29.0547 13.2852Z" fill="white" fill-opacity="0.9"/>
<path fill-rule="evenodd" clip-rule="evenodd" d="M11.3692 6.00853e-06C11.3692 1.49303 11.0751 2.97143 10.5037 4.3508C9.93238 5.73017 9.09494 6.98349 8.03921 8.03922C6.98349 9.09495 5.73017 9.93239 4.35079 10.5038C2.97142 11.0751 1.49302 11.3692 4.96958e-07 11.3692L0 22.7383C2.98604 22.7383 5.94284 22.1502 8.70159 21.0075C11.4603 19.8648 13.967 18.1899 16.0784 16.0784C18.1899 13.967 19.8648 11.4604 21.0075 8.70159C22.1502 5.94284 22.7383 2.98604 22.7383 0L11.3692 6.00853e-06Z" fill="white" fill-opacity="0.9"/>
<path d="M142.818 16.4315H137.301V33.954H142.818V16.4315Z" fill="white" fill-opacity="0.9"/>
<path d="M137.916 13.1503C138.493 13.7272 139.214 14.0156 140.079 14.0156C140.944 14.0156 141.653 13.7272 142.206 13.1503C142.76 12.5494 143.036 11.8283 143.036 10.987C143.036 10.1217 142.76 9.4006 142.206 8.82375C141.653 8.24686 140.944 7.95844 140.079 7.95844C139.214 7.95844 138.493 8.24686 137.916 8.82375C137.363 9.4006 137.086 10.1217 137.086 10.987C137.086 11.8283 137.363 12.5494 137.916 13.1503Z" fill="white" fill-opacity="0.9"/>
<path d="M58.1607 33.9536V8.49908H63.8213V28.9782H75.1065V33.9536H58.1607Z" fill="white" fill-opacity="0.9"/>
<path fill-rule="evenodd" clip-rule="evenodd" d="M85.3 34.3503C83.4973 34.3503 81.8629 33.9538 80.3966 33.1606C78.9544 32.3433 77.8127 31.2377 76.9714 29.8435C76.1302 28.4494 75.7095 26.887 75.7095 25.1564C75.7095 23.4258 76.1302 21.8755 76.9714 20.5054C77.8127 19.1353 78.9544 18.0537 80.3966 17.2605C81.8388 16.4432 83.4733 16.0346 85.3 16.0346C87.1268 16.0346 88.7612 16.4313 90.2034 17.2244C91.6456 18.0176 92.7874 19.1113 93.6286 20.5054C94.4699 21.8755 94.8906 23.4258 94.8906 25.1564C94.8906 26.887 94.4699 28.4494 93.6286 29.8435C92.7874 31.2377 91.6456 32.3433 90.2034 33.1606C88.7612 33.9538 87.1268 34.3503 85.3 34.3503ZM85.3 29.3388C86.0932 29.3388 86.7903 29.1705 87.3912 28.834C87.9921 28.4735 88.4488 27.9808 88.7612 27.3558C89.0977 26.7068 89.266 25.9736 89.266 25.1564C89.266 24.3392 89.0977 23.6301 88.7612 23.0293C88.4247 22.4043 87.9561 21.9236 87.3551 21.5871C86.7782 21.2265 86.0932 21.0463 85.3 21.0463C84.5309 21.0463 83.8459 21.2265 83.2449 21.5871C82.644 21.9236 82.1753 22.4043 81.8388 23.0293C81.5022 23.6542 81.3341 24.3753 81.3341 25.1925C81.3341 25.9857 81.5022 26.7068 81.8388 27.3558C82.1753 27.9808 82.644 28.4735 83.2449 28.834C83.8459 29.1705 84.5309 29.3388 85.3 29.3388Z" fill="white" fill-opacity="0.9"/>
<path fill-rule="evenodd" clip-rule="evenodd" d="M99.2589 40.8042C100.725 41.4771 102.42 41.8137 104.343 41.8137C106.217 41.8137 107.888 41.4411 109.354 40.696C110.82 39.9508 111.974 38.9174 112.815 37.5954C113.657 36.2733 114.078 34.711 114.078 32.9082V16.4313H108.669V17.6086C108.267 17.27 107.81 16.9858 107.299 16.7558C106.362 16.2991 105.292 16.0707 104.09 16.0707C102.48 16.0707 101.05 16.4553 99.7997 17.2244C98.5497 17.9696 97.5643 19.0031 96.8431 20.3251C96.122 21.6232 95.7616 23.0893 95.7616 24.7239C95.7616 26.3343 96.122 27.8005 96.8431 29.1225C97.5643 30.4445 98.5497 31.4901 99.7997 32.2592C101.05 33.0284 102.48 33.413 104.09 33.413C105.268 33.413 106.338 33.1847 107.299 32.728C107.765 32.5067 108.185 32.246 108.561 31.9458V33.0525C108.561 34.2783 108.164 35.2277 107.371 35.9008C106.602 36.5738 105.532 36.9102 104.162 36.9102C103.057 36.9102 102.107 36.718 101.314 36.3334C100.545 35.9489 99.8477 35.3839 99.2227 34.6388L95.8337 38.028C96.6749 39.2298 97.8167 40.1552 99.2589 40.8042ZM107.119 28.0048C106.566 28.3413 105.905 28.5096 105.136 28.5096C104.367 28.5096 103.694 28.3413 103.117 28.0048C102.564 27.6683 102.131 27.2116 101.819 26.6347C101.506 26.0338 101.35 25.3968 101.35 24.7239C101.35 24.0027 101.506 23.3538 101.819 22.7769C102.131 22.2 102.576 21.7433 103.153 21.4068C103.73 21.0703 104.391 20.902 105.136 20.902C105.905 20.902 106.566 21.0703 107.119 21.4068C107.696 21.7433 108.128 22.2 108.417 22.7769C108.729 23.3538 108.885 24.0027 108.885 24.7239C108.885 25.4449 108.729 26.0939 108.417 26.6707C108.128 27.2236 107.696 27.6683 107.119 28.0048Z" fill="white" fill-opacity="0.9"/>
<path fill-rule="evenodd" clip-rule="evenodd" d="M125.687 34.3503C123.884 34.3503 122.249 33.9538 120.783 33.1606C119.341 32.3433 118.199 31.2377 117.358 29.8435C116.516 28.4494 116.096 26.887 116.096 25.1564C116.096 23.4258 116.516 21.8755 117.358 20.5054C118.199 19.1353 119.341 18.0537 120.783 17.2605C122.225 16.4432 123.86 16.0346 125.687 16.0346C127.513 16.0346 129.148 16.4313 130.589 17.2244C132.032 18.0176 133.173 19.1113 134.015 20.5054C134.856 21.8755 135.277 23.4258 135.277 25.1564C135.277 26.887 134.856 28.4494 134.015 29.8435C133.173 31.2377 132.032 32.3433 130.589 33.1606C129.148 33.9538 127.513 34.3503 125.687 34.3503ZM125.687 29.3388C126.479 29.3388 127.176 29.1705 127.778 28.834C128.378 28.4735 128.835 27.9808 129.148 27.3558C129.484 26.7068 129.652 25.9736 129.652 25.1564C129.652 24.3392 129.484 23.6301 129.148 23.0293C128.811 22.4043 128.343 21.9236 127.741 21.5871C127.165 21.2265 126.479 21.0463 125.687 21.0463C124.917 21.0463 124.232 21.2265 123.631 21.5871C123.03 21.9236 122.561 22.4043 122.225 23.0293C121.888 23.6542 121.72 24.3753 121.72 25.1925C121.72 25.9857 121.888 26.7068 122.225 27.3558C122.561 27.9808 123.03 28.4735 123.631 28.834C124.232 29.1705 124.917 29.3388 125.687 29.3388Z" fill="white" fill-opacity="0.9"/>
<path fill-rule="evenodd" clip-rule="evenodd" d="M156.077 34.3143C154.9 34.3143 153.818 34.086 152.832 33.6293C152.313 33.389 151.845 33.102 151.427 32.7685V41.345H145.982V16.4313H151.498V17.6406C151.898 17.3133 152.343 17.0304 152.832 16.7918C153.818 16.311 154.9 16.0707 156.077 16.0707C157.735 16.0707 159.202 16.4673 160.475 17.2606C161.774 18.0537 162.783 19.1354 163.504 20.5054C164.25 21.8755 164.622 23.4379 164.622 25.1925C164.622 26.9472 164.25 28.5096 163.504 29.8797C162.783 31.2498 161.774 32.3313 160.475 33.1245C159.202 33.9178 157.735 34.3143 156.077 34.3143ZM155.068 29.3388C155.861 29.3388 156.546 29.1585 157.123 28.798C157.724 28.4375 158.192 27.9446 158.529 27.3198C158.865 26.6948 159.034 25.9857 159.034 25.1925C159.034 24.3753 158.865 23.6543 158.529 23.0293C158.192 22.4043 157.724 21.9236 157.123 21.5871C156.546 21.2265 155.873 21.0463 155.103 21.0463C154.335 21.0463 153.649 21.2265 153.049 21.5871C152.471 21.9236 152.015 22.4043 151.679 23.0293C151.342 23.6543 151.174 24.3753 151.174 25.1925C151.174 25.9857 151.33 26.6948 151.643 27.3198C151.979 27.9446 152.448 28.4375 153.049 28.798C153.649 29.1585 154.322 29.3388 155.068 29.3388Z" fill="white" fill-opacity="0.9"/>
<path d="M170.021 33.9897C171.031 34.2542 172.052 34.3863 173.085 34.3863C175.273 34.3863 177.003 33.8816 178.277 32.872C179.575 31.8626 180.224 30.5045 180.224 28.7979C180.224 27.6922 180.02 26.8028 179.611 26.1299C179.203 25.4328 178.674 24.88 178.025 24.4713C177.376 24.0627 176.69 23.7381 175.969 23.4978C175.249 23.2575 174.563 23.0532 173.915 22.8849C173.266 22.7166 172.737 22.5244 172.328 22.308C171.92 22.0917 171.715 21.8032 171.715 21.4427C171.715 21.1062 171.872 20.8538 172.184 20.6855C172.496 20.4933 172.965 20.3972 173.59 20.3972C174.239 20.3972 174.9 20.5293 175.573 20.7938C176.27 21.0581 176.895 21.5149 177.447 22.1639L180.584 18.9911C179.792 17.9815 178.758 17.2243 177.484 16.7196C176.234 16.1908 174.864 15.9264 173.374 15.9264C171.956 15.9264 170.718 16.1667 169.661 16.6474C168.602 17.1282 167.785 17.7892 167.208 18.6304C166.632 19.4477 166.343 20.4212 166.343 21.5509C166.343 22.6085 166.548 23.4859 166.956 24.1829C167.364 24.8559 167.894 25.3847 168.542 25.7692C169.191 26.1539 169.877 26.4544 170.598 26.6706C171.318 26.887 172.004 27.0913 172.653 27.2836C173.301 27.4519 173.831 27.6562 174.239 27.8965C174.672 28.1129 174.888 28.4374 174.888 28.87C174.888 29.2065 174.708 29.4708 174.347 29.6632C174.011 29.8554 173.518 29.9516 172.869 29.9516C171.931 29.9516 171.066 29.7834 170.274 29.4468C169.48 29.0863 168.794 28.5936 168.218 27.9686L165.081 31.1414C165.683 31.7904 166.403 32.3673 167.245 32.872C168.11 33.3527 169.035 33.7253 170.021 33.9897Z" fill="white" fill-opacity="0.9"/>
<path d="M190.284 34.3505C188.674 34.3505 187.243 34.026 185.994 33.3771C184.767 32.704 183.807 31.7906 183.11 30.6369C182.412 29.4592 182.064 28.1132 182.064 26.5988V16.4315H187.58V26.5267C187.58 27.1276 187.675 27.6444 187.869 28.077C188.085 28.5097 188.397 28.8462 188.806 29.0866C189.215 29.3269 189.707 29.4471 190.284 29.4471C191.101 29.4471 191.75 29.1947 192.231 28.6899C192.712 28.1611 192.952 27.4401 192.952 26.5267V16.4315H198.468V26.5628C198.468 28.1011 198.12 29.4592 197.422 30.6369C196.725 31.7906 195.765 32.704 194.538 33.3771C193.312 34.026 191.895 34.3505 190.284 34.3505Z" fill="white" fill-opacity="0.9"/>
<path d="M206.727 16.4313H201.211V33.9538H206.727V23.7143C206.727 23.1134 206.848 22.6086 207.088 22.2C207.352 21.7914 207.701 21.4789 208.133 21.2626C208.567 21.0222 209.059 20.902 209.611 20.902C210.405 20.902 211.066 21.1544 211.594 21.6592C212.148 22.1399 212.424 22.825 212.424 23.7143V33.9538H217.941V23.7143C217.941 23.1134 218.061 22.6086 218.301 22.2C218.566 21.7914 218.914 21.4789 219.347 21.2626C219.779 21.0222 220.272 20.902 220.825 20.902C221.618 20.902 222.279 21.1544 222.808 21.6592C223.36 22.1399 223.636 22.825 223.636 23.7143V33.9538H229.154V23.1014C229.154 21.6352 228.841 20.3853 228.216 19.3517C227.615 18.294 226.786 17.4889 225.728 16.9361C224.695 16.3591 223.505 16.0707 222.159 16.0707C220.789 16.0707 219.55 16.3712 218.445 16.9721C217.727 17.3549 217.099 17.849 216.561 18.4543C216.06 17.8212 215.451 17.3031 214.731 16.8999C213.77 16.3472 212.677 16.0707 211.451 16.0707C210.153 16.0707 208.987 16.3472 207.954 16.8999C207.504 17.1299 207.095 17.4054 206.727 17.7264V16.4313Z" fill="white" fill-opacity="0.9"/>
</svg>
