<svg width="190" height="46" viewBox="0 0 190 46" fill="none" xmlns="http://www.w3.org/2000/svg">
<path d="M55.6638 31.8671H69.2522V27.7742H60.4934V12.3576H55.6638V31.8671Z" fill="white" fill-opacity="0.9"/>
<path d="M77.3023 29.1385C75.365 29.1385 74.3555 27.4468 74.3555 24.9092C74.3555 22.3716 75.365 20.6525 77.3023 20.6525C79.2397 20.6525 80.2765 22.3716 80.2765 24.9092C80.2765 27.4468 79.2397 29.1385 77.3023 29.1385ZM77.3296 32.3037C81.8318 32.3037 84.7787 29.1112 84.7787 24.9092C84.7787 20.7071 81.8318 17.5146 77.3296 17.5146C72.8547 17.5146 69.8533 20.7071 69.8533 24.9092C69.8533 29.1112 72.8547 32.3037 77.3296 32.3037Z" fill="white" fill-opacity="0.9"/>
<path d="M92.5717 36.6969C94.6455 36.6969 96.4736 36.233 97.7015 35.1416C98.8202 34.132 99.5569 32.604 99.5569 30.503V17.8968H95.3003V19.3976H95.2458C94.4272 18.2243 93.172 17.4875 91.3166 17.4875C87.8512 17.4875 85.4501 20.3799 85.4501 24.4728C85.4501 28.7567 88.3697 31.1033 91.5076 31.1033C93.1993 31.1033 94.2635 30.4211 95.082 29.4934H95.1912V30.885C95.1912 32.5767 94.3999 33.559 92.5172 33.559C91.0437 33.559 90.307 32.9314 90.0614 32.1947H85.7502C86.1868 35.1143 88.7244 36.6969 92.5717 36.6969ZM92.5444 27.8017C90.88 27.8017 89.7885 26.4374 89.7885 24.3363C89.7885 22.208 90.88 20.8437 92.5444 20.8437C94.3999 20.8437 95.3822 22.4263 95.3822 24.3091C95.3822 26.2736 94.4817 27.8017 92.5444 27.8017Z" fill="white" fill-opacity="0.9"/>
<path d="M108.309 29.1385C106.372 29.1385 105.362 27.4468 105.362 24.9092C105.362 22.3716 106.372 20.6525 108.309 20.6525C110.247 20.6525 111.283 22.3716 111.283 24.9092C111.283 27.4468 110.247 29.1385 108.309 29.1385ZM108.337 32.3037C112.839 32.3037 115.785 29.1112 115.785 24.9092C115.785 20.7071 112.839 17.5146 108.337 17.5146C103.862 17.5146 100.86 20.7071 100.86 24.9092C100.86 29.1112 103.862 32.3037 108.337 32.3037Z" fill="white" fill-opacity="0.9"/>
<path d="M117.084 31.8671H121.532V17.8967H117.084V31.8671ZM117.084 15.9594H121.532V12.3576H117.084V15.9594Z" fill="white" fill-opacity="0.9"/>
<path d="M123.462 36.4786H127.91V30.4211H127.964C128.838 31.5944 130.12 32.3038 131.921 32.3038C135.577 32.3038 138.006 29.4115 138.006 24.8821C138.006 20.68 135.741 17.4875 132.03 17.4875C130.12 17.4875 128.756 18.3334 127.801 19.5886H127.719V17.8968H123.462V36.4786ZM130.775 28.8658C128.865 28.8658 127.773 27.3105 127.773 25.0458C127.773 22.781 128.756 21.062 130.693 21.062C132.603 21.062 133.504 22.6446 133.504 25.0458C133.504 27.4197 132.467 28.8658 130.775 28.8658Z" fill="white" fill-opacity="0.9"/>
<path d="M145.246 32.3038C148.902 32.3038 151.603 30.7213 151.603 27.6652C151.603 24.0908 148.711 23.4632 146.255 23.0539C144.482 22.7265 142.899 22.59 142.899 21.6077C142.899 20.7346 143.745 20.3253 144.836 20.3253C146.064 20.3253 146.91 20.7073 147.074 21.9625H151.167C150.948 19.2066 148.82 17.4875 144.864 17.4875C141.562 17.4875 138.833 19.0156 138.833 21.9625C138.833 25.2368 141.426 25.8916 143.854 26.3009C145.709 26.6284 147.401 26.7648 147.401 28.0199C147.401 28.9204 146.555 29.4115 145.218 29.4115C143.745 29.4115 142.817 28.7294 142.653 27.3378H138.451C138.588 30.4211 141.153 32.3038 145.246 32.3038Z" fill="white" fill-opacity="0.9"/>
<path d="M157.646 32.2766C159.583 32.2766 160.811 31.5126 161.82 30.1483H161.902V31.8673H166.159V17.8969H161.711V25.7006C161.711 27.3651 160.783 28.5111 159.255 28.5111C157.837 28.5111 157.154 27.6652 157.154 26.1372V17.8969H152.734V27.0649C152.734 30.1756 154.426 32.2766 157.646 32.2766Z" fill="white" fill-opacity="0.9"/>
<path d="M168.093 31.8673H172.541V24.0362C172.541 22.3717 173.36 21.1984 174.751 21.1984C176.088 21.1984 176.716 22.0716 176.716 23.5723V31.8673H181.163V24.0362C181.163 22.3717 181.955 21.1984 183.374 21.1984C184.711 21.1984 185.338 22.0716 185.338 23.5723V31.8673H189.786V22.781C189.786 19.6431 188.203 17.4875 185.038 17.4875C183.237 17.4875 181.736 18.2516 180.645 19.9433H180.59C179.881 18.4426 178.489 17.4875 176.661 17.4875C174.642 17.4875 173.305 18.4426 172.432 19.8887H172.35V17.8968H168.093V31.8673Z" fill="white" fill-opacity="0.9"/>
<path d="M28.5281 1.19815L24.0566 0L20.2884 14.0632L16.8864 1.36685L12.4148 2.565L16.0905 16.2824L6.93528 7.12731L3.66188 10.4007L13.704 20.4429L1.19815 17.0919L0 21.5634L13.6642 25.2247C13.5077 24.55 13.425 23.8469 13.425 23.1245C13.425 18.0111 17.5702 13.8659 22.6836 13.8659C27.797 13.8659 31.9422 18.0111 31.9422 23.1245C31.9422 23.8422 31.8604 24.541 31.7059 25.2118L44.1241 28.5392L45.3222 24.0677L31.6037 20.3918L44.1103 17.0406L42.9121 12.5691L29.1942 16.2448L38.3494 7.08972L35.076 3.81632L25.1732 13.7191L28.5281 1.19815Z" fill="white" fill-opacity="0.9"/>
<path d="M31.6933 25.2639C31.3099 26.8847 30.5006 28.3408 29.39 29.5073L38.3864 38.5039L41.6599 35.2305L31.6933 25.2639Z" fill="white" fill-opacity="0.9"/>
<path d="M29.2997 29.6015C28.1758 30.7494 26.7554 31.6061 25.1626 32.0476L28.4362 44.2649L32.9077 43.0667L29.2997 29.6015Z" fill="white" fill-opacity="0.9"/>
<path d="M24.9956 32.0923C24.2566 32.2823 23.4821 32.3832 22.6838 32.3832C21.8286 32.3832 21.0005 32.2673 20.2143 32.0502L16.9377 44.2787L21.4092 45.4768L24.9956 32.0923Z" fill="white" fill-opacity="0.9"/>
<path d="M20.0556 32.0051C18.4871 31.5417 17.092 30.6741 15.991 29.5228L6.97241 38.5414L10.2458 41.8148L20.0556 32.0051Z" fill="white" fill-opacity="0.9"/>
<path d="M15.9161 29.4432C14.8339 28.2846 14.0457 26.848 13.6705 25.2523L1.21179 28.5906L2.40993 33.0621L15.9161 29.4432Z" fill="white" fill-opacity="0.9"/>
</svg>
