<svg width="45" height="45" viewBox="0 0 45 45" fill="none" xmlns="http://www.w3.org/2000/svg">
<g clip-path="url(#clip0_2054_591)">
<path fill-rule="evenodd" clip-rule="evenodd" d="M22.2223 27.1865C28.1828 27.1865 33.0147 22.3546 33.0147 16.3942C33.0147 10.4337 28.1828 5.60176 22.2223 5.60176H11.4299V16.3942C11.4299 22.3546 16.2618 27.1865 22.2223 27.1865ZM38.4109 16.3942C38.4109 25.3349 31.163 32.5827 22.2223 32.5827C13.2816 32.5827 6.03369 25.3349 6.03369 16.3942V0.205566H22.2223C31.163 0.205566 38.4109 7.45344 38.4109 16.3942Z" fill="white"/>
<path fill-rule="evenodd" clip-rule="evenodd" d="M22.2223 38.8427C28.1828 38.8427 33.0147 34.0108 33.0147 28.0503C33.0147 22.0898 28.1828 17.2579 22.2223 17.2579H11.4299V28.0503C11.4299 34.0108 16.2618 38.8427 22.2223 38.8427ZM38.4109 28.0503C38.4109 36.991 31.163 44.2389 22.2223 44.2389C13.2816 44.2389 6.03369 36.991 6.03369 28.0503V11.8617H22.2223C31.163 11.8617 38.4109 19.1096 38.4109 28.0503Z" fill="white"/>
</g>
<defs>
<clipPath id="clip0_2054_591">
<rect width="44.4444" height="44.4444" fill="white"/>
</clipPath>
</defs>
</svg>
