<svg width="45" height="45" viewBox="0 0 45 45" fill="none" xmlns="http://www.w3.org/2000/svg">
<path d="M2.85736 29.8413C2.85736 26.6855 5.4157 24.1271 8.57157 24.1271C11.7274 24.1271 14.2858 26.6855 14.2858 29.8413C14.2858 32.9972 11.7274 35.5556 8.57157 35.5556C5.4157 35.5556 2.85736 32.9972 2.85736 29.8413Z" fill="white"/>
<path d="M16.508 22.2218C16.508 19.0659 19.0663 16.5076 22.2222 16.5076C25.3781 16.5076 27.9364 19.0659 27.9364 22.2218V29.8407C27.9364 32.9966 25.3781 35.5549 22.2222 35.5549C19.0663 35.5549 16.508 32.9966 16.508 29.8407V22.2218Z" fill="white"/>
<path d="M16.508 20.3175C16.508 17.1616 19.0663 14.6033 22.2222 14.6033C25.3781 14.6033 27.9364 17.1616 27.9364 20.3175C27.9364 23.4734 25.3781 26.0317 22.2222 26.0317C19.0663 26.0317 16.508 23.4734 16.508 20.3175Z" fill="white"/>
<path d="M30.1587 14.6031C30.1587 11.4473 32.717 8.88892 35.8729 8.88892C39.0287 8.88892 41.5871 11.4473 41.5871 14.6031V29.841C41.5871 32.9969 39.0287 35.5552 35.8729 35.5552C32.717 35.5552 30.1587 32.9969 30.1587 29.841V14.6031Z" fill="white"/>
<path d="M30.1587 14.6031C30.1587 11.4473 32.717 8.88892 35.8729 8.88892C39.0287 8.88892 41.5871 11.4473 41.5871 14.6031C41.5871 17.759 39.0287 20.3173 35.8729 20.3173C32.717 20.3173 30.1587 17.759 30.1587 14.6031Z" fill="white"/>
</svg>
